<?xml version="1.0" encoding="UTF-8"?>
<svg xmlns="http://www.w3.org/2000/svg" version="1.1" viewBox="0 0 500 500">
  <defs>
    <style>
      .cls-1 {
        fill: #eee;
      }
    </style>
  </defs>
  <!-- Generator: Adobe Illustrator 28.6.0, SVG Export Plug-In . SVG Version: 1.2.0 Build 709)  -->
  <g>
    <g id="Capa_1">
      <g>
        <g>
          <path class="cls-1" d="M430.5,40h-147V4.5h-13.3v199.7h13.3v-79.9h44.4v48.8h13.3v-48.8h117.6v168.7h13.3V81.6c0-23-18.6-41.6-41.6-41.6h0ZM327.8,111h-44.4v-57.7h44.4v57.7ZM458.7,111h-117.6v-57.7h89.4c15.6,0,28.3,12.7,28.3,28.3v29.4h0Z"/>
          <path class="cls-1" d="M216.8,439.5v-48.8h44.4v-13.3h-44.4v-48.8h44.4v-13.3h-44.4v-35.5h-13.3v35.5h-111v-35.5h-13.3v35.5H19.3v-35.5H6v131.5c0,22.9,18.6,41.6,41.6,41.6h235.8v-13.3h-66.6ZM79.2,439.5h-31.7c-15.6,0-28.3-12.7-28.3-28.3v-20.5h59.9v48.8h0ZM79.2,377.3H19.3v-48.8h59.9v48.8ZM203.5,439.5h-111v-48.8h111v48.8ZM203.5,377.3h-111v-48.8h111v48.8Z"/>
        </g>
        <path class="cls-1" d="M492.7,360.2l-100.6,129.6-2.6,3.3c-1.1,1.4-2.5,2.1-4,2.3-1.5-.2-2.9-.9-4-2.3l-2.6-3.3-100.6-129.6c-3.6-4.7,1.1-11.3,6.7-9.3l65,22.6v-182.6h71v182.6l65-22.6c5.6-2,10.3,4.6,6.7,9.3h0Z"/>
      </g>
      <path class="cls-1" d="M222.6,100.7v-12.5c0-25.6,0-51.3,0-76.9,0-4.5-1.5-6.2-6.3-6.2-56.6,0-113.2,0-169.7,0-4.8,0-6.3,1.7-6.3,6.2,0,32.7,0,65.4,0,98.1v3.4h-2.9c-8.4,0-16.7,0-25.1,0-1.6,0-3.1.2-4.2,1.5-1,1.2-1,2.5-1,3.9,0,40.8,0,81.6,0,122.4,0,12.2,9,21.2,21.2,21.2,57.6,0,115.2,0,172.8,0,12.2,0,21.1-9,21.2-21.3,0-2.6,0-5.2,0-7.8v-7c0-.4,0-.8,0-1.2v-123.8s0,0,0,0h0ZM40.4,240.5c0,6.3-3.6,11.1-9.5,12.6-7.4,1.9-14.9-3.6-15.3-11.3,0-.8,0-1.6,0-2.3v-118.4h24.7c0,.6.2,1.2.2,1.8,0,39.2,0,78.4,0,117.7ZM214.2,226.5c0,.7.1,1.2.1,1.7,0,1.5,0,3,0,4.5,0,2.7,0,5.5,0,8.2,0,7.2-5.4,12.5-12.7,12.6-12.7,0-25.4,0-38,0H44.5c4.1-5.4,4.3-11.4,4.3-17.5,0-73.1,0-146.3,0-219.4v-3.1h165.3c.4,1.4.5,52.6.3,74.7,0,5.7-.1,9.4-.2,10v128.5s.1,0,.1,0h0ZM221.4,196.8c.1-.3.3-.7.4-1-.1.4-.3.7-.4,1Z"/>
      <path class="cls-1" d="M214.1,88.1v10c.1-.6.2-4.3.2-10h-.2ZM214.4,228.2c0-.5,0-1-.1-1.7,0,0-.1,0-.1,0v6.2h.3c0-1.5,0-3,0-4.5Z"/>
      <path class="cls-1" d="M214.1,232.7V88.1h.2c.2-22.1,0-73.3-.3-74.7H48.7v3.1c0,73.2,0,146.3,0,219.4,0,6.1-.2,12.1-4.3,17.5h119.2c12.7,0,25.4,0,38,0,7.3,0,12.6-5.3,12.7-12.6,0-2.7,0-5.5,0-8.2h-.3ZM148.1,58.9c0-1.3,0-2.6,0-3.8,2-.5,53.2-.7,57.9-.2v8h-57.6c-.6-1.2-.2-2.6-.3-3.9h0ZM70.1,21.6c13.4.2,26.7.1,40.1,0,7.6,0,13.3,6,13.1,13.2-.2,6.6,0,13.3,0,19.9s-.2,13.3,0,19.9c.2,7.3-5.5,13.3-13.1,13.3-13.5-.2-27.1,0-40.6,0-6.2,0-11.1-4.1-12.3-10.1-.2-.9-.2-1.9-.2-2.8,0-13.5,0-26.9,0-40.4,0-7.3,5.8-13.1,13.1-13h0ZM123.2,224.1c0,7.4-5.3,12.7-12.7,12.8h-20.4c-6.6,0-13.3-.1-19.9,0-7.4.2-13.3-5.8-13.2-13.2.2-13.4.2-26.7,0-40.1,0-7.4,5.9-13.1,13-13.1,13.4.1,26.9,0,40.4,0,7.6,0,12.9,5.3,12.9,12.9,0,13.5,0,27.1,0,40.6h0ZM123.3,149.3c0,7.1-5.5,13.3-13.2,13.1-6.7-.2-13.4,0-20.2,0s-13.1-.1-19.7,0c-7.5.2-13.3-5.8-13.2-13.1.2-13.4.2-26.7,0-40.1,0-7.4,5.9-13.2,13.2-13.1,13.3.2,26.6.2,39.8,0,7.8,0,13.3,6,13.2,13.1-.2,13.4-.2,26.7,0,40.1h0ZM206.1,78.3c0,.3,0,.7-.1,1.1h-74.1c-.6-1.2-.2-2.6-.3-3.9,0-1.3,0-2.6,0-3.8,2-.5,69.8-.7,74.5-.2v6.8h0Z"/>
      <path class="cls-1" d="M115,54.7v-19.4c0-3.9-1.4-5.4-5.2-5.4-13.1,0-26.2,0-39.3,0-3.4,0-5.3,2.1-5.2,5.2.1,13.1.1,26.2,0,39.3,0,3.2,1.8,5.3,5.4,5.3,13-.1,26-.1,39,0,3.5,0,5.4-2,5.4-5.3-.2-6.5,0-13.1,0-19.6h0ZM109.6,68.3c-2,2-3.8,3.8-5.9,5.9-4.5-4.5-8.9-8.9-13.6-13.6-4.6,4.6-9,9-13.6,13.6-2-2-3.9-3.8-5.9-5.9,4.5-4.5,9-9,13.6-13.6-4.5-4.5-9-9-13.6-13.6,2-2,3.8-3.8,5.9-5.9l13.6,13.6c4.5-4.5,8.9-9,13.5-13.5,2.2,1.7,3.9,3.7,6,5.7-4.5,4.5-9,9-13.6,13.6,4.6,4.6,9,9,13.6,13.6h0Z"/>
      <path class="cls-1" d="M115,148v-38.8c0-3.3-1.5-4.8-4.7-4.8-.5,0-1,0-1.6,0h-37.5c-.6,0-1.2,0-1.8,0-2.5.2-3.9,1.7-4.1,4.1,0,.5,0,1,0,1.6v38.3c0,.4,0,.9,0,1.3.1,2.9,1.7,4.4,4.6,4.5.4,0,.9,0,1.3,0h38c.7,0,1.4,0,2.1,0,2.1-.2,3.5-1.7,3.7-3.7,0-.8,0-1.6,0-2.3h0ZM103.6,148.6c-4.4-4.4-8.8-8.8-13.4-13.4-2.4,2.1-4.6,4.5-6.8,6.7-2.3,2.2-4.5,4.5-6.8,6.8-1.9-2.1-3.7-3.9-5.7-6.1,4.3-4.3,8.7-8.7,13.4-13.4-2.3-2.3-4.5-4.6-6.8-6.8s-4.5-4.5-6.8-6.8c2-2,3.8-3.8,5.9-5.9l13.5,13.5c4.6-4.6,9.1-9.1,13.6-13.6,1.9,2.1,3.6,4,5.6,6.1-4.2,4.2-8.7,8.7-13.3,13.3,2.2,2.4,4.5,4.6,6.7,6.8,2.2,2.3,4.5,4.5,6.8,6.8-2,2-3.9,3.8-6,5.8h0Z"/>
      <path class="cls-1" d="M115,222.6v-38.8c0-3.4-1.6-4.8-5-4.9h-38.8c-.6,0-1.2,0-1.8,0-2.5.2-3.9,1.7-4.1,4.1,0,.5,0,1,0,1.6v38.2c0,.6,0,1.2,0,1.8.2,2.3,1.7,3.7,4,3.9.6,0,1.2,0,1.8,0h38c.7,0,1.4,0,2.1,0,2.1-.2,3.5-1.7,3.7-3.7,0-.8,0-1.6,0-2.3h0ZM108.2,195.8c-7.5,7.5-15,15-22.5,22.5-.7.7-1.4,1.3-2.2,1.7-1.4.8-3,.6-4.1-.5-2.9-2.8-5.8-5.6-8.7-8.5,2-2,3.8-3.8,5.8-5.8,1.7,1.7,3.4,3.3,5.4,5.2,7.3-7.3,14.5-14.5,21.8-21.9,1.9,2.1,3.6,4,5.4,6.1-.2.2-.6.8-1,1.2Z"/>
    </g>
  </g>
</svg>