<?xml version="1.0" encoding="UTF-8"?>
<svg xmlns="http://www.w3.org/2000/svg" version="1.1" viewBox="0 0 500 500">
  <defs>
    <style>
      .cls-1 {
        fill: #eee;
      }
    </style>
  </defs>
  <!-- Generator: Adobe Illustrator 28.6.0, SVG Export Plug-In . SVG Version: 1.2.0 Build 709)  -->
  <g>
    <g id="Capa_1">
      <g>
        <g>
          <g>
            <path class="cls-1" d="M429.8,42.5h-146.1V7.2h-13.2v198.4h13.2v-79.4h44.1v48.5h13.2v-48.5h116.9v167.6h13.2V83.8c0-22.8-18.5-41.3-41.3-41.3h0ZM327.8,113h-44.1v-57.3h44.1v57.3ZM457.9,113h-116.9v-57.3h88.8c15.5,0,28.1,12.6,28.1,28.1v29.2h0Z"/>
            <path class="cls-1" d="M217.6,439.4v-48.5h44.1v-13.2h-44.1v-48.5h44.1v-13.2h-44.1v-35.3h-13.2v35.3h-110.2v-35.3h-13.2v35.3H21.3v-35.3h-13.2v130.7c0,22.8,18.5,41.3,41.3,41.3h234.3v-13.2h-66.1ZM80.9,439.4h-31.4c-15.5,0-28.1-12.6-28.1-28.1v-20.4h59.5v48.5h0ZM80.9,377.6H21.3v-48.5h59.5v48.5h0ZM204.4,439.4h-110.2v-48.5h110.2v48.5ZM204.4,377.6h-110.2v-48.5h110.2v48.5Z"/>
          </g>
          <path class="cls-1" d="M491.7,360.6l-100,128.8-2.6,3.3c-1.1,1.4-2.5,2.1-4,2.3-1.5-.2-2.9-.9-4-2.3l-2.6-3.3-100-128.8c-3.6-4.7,1.1-11.2,6.7-9.3l64.6,22.5v-181.5h70.6v181.5l64.6-22.5c5.6-1.9,10.3,4.6,6.7,9.3h0Z"/>
        </g>
        <g>
          <path class="cls-1" d="M7,225.5c.3-1.1.6-2.3.9-3.5,2.8-10.4,12.9-18.8,25.7-17.9,11,.8,20.5,9.5,22.2,20.7.1.7.3,1.4.3,2.1,0,7.7,0,15.4,0,23.5-16.4,0-32.8,0-49.1,0v-25.1h0Z"/>
          <path class="cls-1" d="M124.7,135.8H41.7c0,3.4,0,6.7,0,9.9,0,1.2,0,2.4-.3,3.6-.9,3.9-4.5,6.5-8.4,6.2-4-.4-7.1-3.5-7.2-7.5-.1-7-.1-14,0-21,0-3.9,3.2-6.9,7.1-7.2,1,0,2.1,0,3.1,0h88.5c0-1.6,0-3,.1-4.4.2-3.7,2.8-6.8,6.4-7.5,3.7-.7,7.5,1.3,8.8,4.8.4,1.2.6,2.5.7,3.8.1,1,0,2.1,0,3.4h88.5c.9,0,1.8,0,2.6,0,4.4.2,7.7,3.3,7.8,7.6.1,6.8.2,13.7,0,20.5-.1,4.4-3.9,7.7-8.1,7.6-4.3-.1-7.6-3.5-7.7-8,0-3.1,0-6.1,0-9.2v-2.5h-82.8c0,.5-.2,1.1-.2,1.7,0,2.4,0,4.8,0,7.2-.2,4.1-3.1,7.2-6.9,7.8-3.8.5-7.5-1.8-8.6-5.5-.3-1-.3-2.1-.4-3.1,0-2.6,0-5.3,0-8.2h0Z"/>
          <path class="cls-1" d="M157,88.1h-48.8c0-.6-.2-1.2-.2-1.7,0-6.5,0-13,0-19.5.2-10.3,4.7-18.1,14-22.7,16-7.8,34.7,3.6,35.1,21.4.2,7,0,14,0,21,0,.5,0,.9-.1,1.5h0Z"/>
          <path class="cls-1" d="M253.9,250.5h-48.8c0-.4-.2-.8-.2-1.2,0-7-.1-14,0-21,.2-11.9,8.4-21.5,20.1-23.9,13.2-2.6,26.5,6.6,28.7,19.9.2,1.1.4,2.2.4,3.3,0,7.2,0,14.5,0,21.7s0,.6-.1,1.1h0Z"/>
          <path class="cls-1" d="M108.3,250.4c-.2-.2-.2-.3-.2-.3,0-8-.4-16.1.2-24.1,1-12.9,12.1-22.2,25-21.9,13.2.4,23.5,10.8,23.8,24,.1,7,0,14,0,21s0,.8-.1,1.3h-48.7Z"/>
          <path class="cls-1" d="M115.9,183.9c0-9.2,7.6-16.7,16.7-16.7,9.2,0,16.7,7.6,16.6,16.8,0,9.2-7.7,16.7-16.8,16.7-9.2,0-16.6-7.6-16.6-16.8h0Z"/>
          <path class="cls-1" d="M115.9,21.7c0-9.3,7.4-16.7,16.6-16.7,9.2,0,16.7,7.5,16.7,16.7,0,9.2-7.5,16.7-16.7,16.7-9.3,0-16.7-7.4-16.7-16.6h0Z"/>
          <path class="cls-1" d="M48.3,183.9c0,9.1-7.5,16.8-16.7,16.8-9.1,0-16.7-7.6-16.8-16.7,0-9.1,7.5-16.7,16.7-16.8,9.2,0,16.7,7.5,16.8,16.7h0Z"/>
          <path class="cls-1" d="M229.4,167.2c9.1,0,16.8,7.4,16.8,16.6,0,9.1-7.5,16.8-16.6,16.9-9.1,0-16.7-7.4-16.8-16.6-.1-9.1,7.4-16.8,16.6-16.8h0Z"/>
        </g>
      </g>
    </g>
  </g>
</svg>