<?xml version="1.0" encoding="UTF-8"?>
<svg xmlns="http://www.w3.org/2000/svg" version="1.1" viewBox="0 0 500 500">
  <defs>
    <style>
      .cls-1 {
        fill: #eee;
      }
    </style>
  </defs>
  <!-- Generator: Adobe Illustrator 28.6.0, SVG Export Plug-In . SVG Version: 1.2.0 Build 709)  -->
  <g>
    <g id="Capa_1">
      <g>
        <g>
          <g>
            <path class="cls-1" d="M435.5,40.3h-146.8V4.8h-13.3v199.4h13.3v-79.8h44.3v48.8h13.3v-48.8h117.5v168.4h13.3V81.8c0-22.9-18.6-41.5-41.5-41.5ZM332.9,111.2h-44.3v-57.6h44.3v57.6ZM463.7,111.2h-117.5v-57.6h89.2c15.6,0,28.2,12.7,28.2,28.2v29.4h0Z"/>
            <path class="cls-1" d="M222.1,439.2v-48.8h44.3v-13.3h-44.3v-48.8h44.3v-13.3h-44.3v-35.5h-13.3v35.5h-110.8v-35.5h-13.3v35.5H24.9v-35.5h-13.3v131.3c0,22.9,18.6,41.5,41.5,41.5h235.5v-13.3h-66.5ZM84.8,439.2h-31.6c-15.6,0-28.2-12.7-28.2-28.2v-20.5h59.8v48.8ZM84.8,377.1H24.9v-48.8h59.8v48.8ZM208.9,439.2h-110.8v-48.8h110.8v48.8ZM208.9,377.1h-110.8v-48.8h110.8v48.8Z"/>
          </g>
          <path class="cls-1" d="M497.6,360.1l-100.5,129.5-2.6,3.3c-1.1,1.4-2.5,2.1-4,2.3-1.5-.2-2.9-.9-4-2.3l-2.6-3.3-100.5-129.5c-3.6-4.7,1.1-11.3,6.7-9.3l64.9,22.6v-182.4h70.9v182.4l64.9-22.6c5.6-2,10.3,4.6,6.7,9.3h0Z"/>
        </g>
        <path class="cls-1" d="M1.1,17.7c.2-.4.4-.7.6-1.1,1.5-3.2,3.8-4.8,7.1-4.9h1.2c28.7,0,57.4,0,86.1,0,1.3,0,2.7,0,3.9.5,3.1,1.1,4.6,3.6,5,7,0,.6,0,1.2,0,1.9v61.8c0,.9,0,1.8-.1,2.7-.6,3.8-3.5,6.5-7.1,6.7-.9,0-1.8,0-2.7,0h-34.5v16.1c2.1,0,4.1,0,6.1,0,.9,0,1.8,0,2.7.2,3.7.9,6.1,4.6,5.8,8.5-.3,4.1-3.4,7.3-7.2,7.4-2.9,0-5.8,0-8.7,0h-20c-.9,0-1.8,0-2.7-.2-3.7-.9-6.1-4.5-5.9-8.5.3-4.1,3.3-7.3,7.2-7.4,2.5,0,4.9,0,7.5,0v-16.1c-.8,0-1.7,0-2.5,0-10.6,0-21.3-.2-31.9,0-4.6,0-8-1.3-10-6V17.7h0Z"/>
        <path class="cls-1" d="M1.1,227.5c.2-.3.4-.5.5-.8,1.5-3.5,4-5.1,7.5-5.1,2.2,0,4.4,0,6.9,0v-3.1c0-17.3,0-34.6,0-51.9,0-1.3,0-2.7.4-4,.9-3.2,3.5-5.4,6.6-5.6.6,0,1.1,0,1.7,0h71.8c.9,0,1.8,0,2.7.2,3.7.9,5.9,4.1,5.9,8.4,0,9.9,0,19.9,0,29.8v26.1c2.5,0,4.9,0,7.2,0,3.2,0,5.6,1.6,6.9,4.7,2.2,5.1-1,10.9-6.2,11.4-.8,0-1.7,0-2.5,0-33.2,0-66.3,0-99.5,0-4.6,0-8-1.4-10-6v-4.3h0Z"/>
        <path class="cls-1" d="M214,184c-12.2-2.4-19.8-12.8-18.6-23.7,1.2-11.2,10.9-19.6,22.5-19.4,11.3.1,20.9,8.6,21.8,19.6,1,11.5-7.2,21.4-19.2,23.3,1.2.3,1.8.5,2.4.6,18.2,2.7,31.6,17.5,31.7,35.3,0,4.6-.1,9.3,0,13.9.1,4.5-3.4,8-8.2,7.9-19.3-.1-38.6-.1-57.9,0-4.8,0-8.4-3.5-8.2-7.9.2-4.6,0-9.3,0-13.9.1-17.8,13.5-32.7,31.7-35.3.6,0,1.3-.3,1.9-.4h0Z"/>
        <path class="cls-1" d="M214,57.2c-12.2-2.3-19.8-12.8-18.6-23.7,1.2-11.2,10.9-19.6,22.5-19.4,11.3.1,20.9,8.6,21.8,19.6,1,11.5-7.2,21.4-19.2,23.3,1.2.3,1.8.5,2.4.6,18.2,2.7,31.6,17.5,31.7,35.3,0,4.6-.1,9.3,0,13.9.1,4.5-3.4,8-8.2,7.9-19.3,0-38.6,0-57.9,0-4.8,0-8.4-3.5-8.2-7.9.2-4.6,0-9.3,0-13.9.1-17.8,13.5-32.7,31.7-35.3.6,0,1.3-.3,1.9-.4h0Z"/>
        <path class="cls-1" d="M139.5,205.4c-3.8,0-7.1,0-10.5,0-.9,0-1.8,0-2.7-.2-3.7-.9-6.1-4.5-5.9-8.5.3-4.1,3.3-7.3,7.2-7.4,2.9-.1,5.8,0,8.7,0h3.1c-.9-1.1-1.6-1.9-2.3-2.8-3.7-4.8-1.6-11.7,3.9-13.1,2.8-.7,5.2.3,7.2,2.5,4.4,4.7,8.7,9.5,13.1,14.2.3.3.6.6.9.9,3.7,4.1,3.7,8.6,0,12.7-3.5,3.8-7,7.6-10.5,11.4-1.3,1.4-2.6,3-4.1,4.3-4.4,4.1-10.7,1.9-12.1-4.1-.7-2.8.1-5.3,1.9-7.4.6-.7,1.2-1.4,2.1-2.5h0Z"/>
        <path class="cls-1" d="M139.5,76.3c-3.9,0-7.2,0-10.6,0-.9,0-1.8,0-2.7-.2-3.7-1-6.1-4.6-5.8-8.5.3-4,3.4-7.2,7.3-7.3,3,0,5.9,0,8.9,0h2.8c-.9-1-1.5-1.7-2.1-2.5-2.8-3.5-2.8-8.3.1-11.4,2.8-3,7.3-3.2,10.3,0,5.2,5.4,10.2,10.9,15.2,16.5,2.8,3.2,2.8,7.8,0,10.9-5,5.6-10,11.1-15.2,16.5-3,3.1-7.5,2.9-10.3-.2-2.8-3.1-2.9-7.8-.2-11.2.6-.7,1.2-1.4,2.2-2.6h0Z"/>
      </g>
    </g>
  </g>
</svg>