<?xml version="1.0" encoding="UTF-8"?>
<svg xmlns="http://www.w3.org/2000/svg" version="1.1" viewBox="0 0 500 500">
  <defs>
    <style>
      .cls-1 {
        fill: #eee;
      }
    </style>
  </defs>
  <!-- Generator: Adobe Illustrator 28.6.0, SVG Export Plug-In . SVG Version: 1.2.0 Build 709)  -->
  <g>
    <g id="Capa_1">
      <g>
        <g>
          <path class="cls-1" d="M426.4,54.2h-142.2V19.8h-12.9v193.2h12.9v-77.3h42.9v47.2h12.9v-47.2h113.8v163.1h12.9V94.4c0-22.2-18-40.2-40.2-40.2h0ZM327.1,122.9h-42.9v-55.8h42.9v55.8ZM453.8,122.9h-113.8v-55.8h86.4c15.1,0,27.4,12.3,27.4,27.3v28.5h0Z"/>
          <path class="cls-1" d="M219.8,440.6v-47.2h42.9v-12.9h-42.9v-47.2h42.9v-12.9h-42.9v-34.4h-12.9v34.4h-107.3v-34.4h-12.9v34.4H28.7v-34.4h-12.9v127.2c0,22.1,18,40.2,40.2,40.2h228.1v-12.9h-64.4ZM86.7,440.6h-30.6c-15.1,0-27.4-12.3-27.4-27.4v-19.9h58v47.2ZM86.7,380.5H28.7v-47.2h58v47.2h0ZM206.9,440.6h-107.3v-47.2h107.3v47.2ZM206.9,380.5h-107.3v-47.2h107.3v47.2Z"/>
        </g>
        <path class="cls-1" d="M486.6,363.9l-97.3,125.4-2.5,3.2c-1.1,1.3-2.5,2.1-3.9,2.2-1.5-.2-2.8-.9-3.9-2.2l-2.5-3.2-97.3-125.4c-3.5-4.5,1-10.9,6.5-9l62.9,21.9v-176.7h68.7v176.7l62.9-21.9c5.5-1.9,10,4.5,6.5,9h0Z"/>
      </g>
      <g>
        <g>
          <path class="cls-1" d="M101.7,225.5v24.4c0,1.1.2,2.4.9,3.3,3.3,5.1,3.1,11-.7,15.5-3.3,4.4-9.1,6-14.3,4.4-5.4-1.7-9.3-6.6-9.3-12.2s.7-5.4,2.4-7.7c.5-.9.9-1.9.9-3.1v-25.5c0-.2,0-.5-.2-1.4-13.8,8.9-27.4,17.5-41,26.2-.2,1.4-.2,2.6.7,3.8,5.2,7.1,2.2,17.5-7,20.4-.5.2-1,.5-1.2.7h-5.4c-.7-.5-1.6-.7-2.4-1.1-7.7-3.1-10.5-12.2-6-19.2.7-1.4,1.1-2.6,1.1-4.2-.2-1.4,0-2.8,0-4.2-.2-4.7,1.9-8,5.7-10.3,8.2-5.2,16.2-10.3,24-15.2,11.5-7.5,23.2-14.8,34.7-22.2,4.9-3.1,9.1-3.1,14,0,4.4,2.8,8.8,5.7,13.2,8.5-1.2,5.2-1.9,10.6-1.9,16.2s0,4.1.3,6.2c-2-1.3-4.1-2.5-6.1-3.8-.7-.5-1.4-.9-2.3-1.4-.2.9-.2,1.6-.2,2.1h0Z"/>
          <path class="cls-1" d="M171.3,122.8v31.1c-23.8,2.6-44.1,17.5-54.2,38.1H23.7c-1.4,0-2.8,0-4.2-.2-4.4-1.1-7.3-4.9-7.3-9.6v-37.2c0-7.1-.2-14.2,0-21.3,0-4,2.1-7.1,5.9-8.7,3.8-1.5,7.3-.7,10.3,1.8,2.4,2.2,3.3,4.9,3.1,8.2v30.9h.7c.5-3.3,1.2-6.6,1.7-9.9,2.3-16.6,3.5-33.5,3.5-50.6-.2-23.1-2.5-46.1-7.4-68.8,0-1-.2-1.9-.2-2.6-.5-4.2,1.1-7.3,5.1-8.4,7-2.6,14-4.9,21.3-6.8,12.4-3.2,25-4.7,37.9-4.4,19,.5,37,4.2,54.6,11,4.7,1.8,6.4,5.4,5.1,10.5-1.1,5.7-2.3,11.3-3.3,16.9-3.4,20.8-4.9,41.9-4.2,63,.5,15.4,1.9,30.9,4.5,46.4.2,1.1.5,2.5.7,3.8h.7v-30.7c0-1.2,0-2.3.2-3.5.7-4.7,4.9-7.9,9.8-7.7,4.7.2,8.7,4,9.2,8.7h0Z"/>
        </g>
        <path class="cls-1" d="M178.9,161.1c-33.9,0-61.3,27.4-61.3,61.3s27.4,61.3,61.3,61.3,61.3-27.4,61.3-61.3-27.4-61.3-61.3-61.3h0ZM217.7,218.2l-24.9-6.7v53.5h-27.1v-53.5l-24.9,6.7c-2.1.5-4-1.4-2.5-2.8l38.5-37.9,1-1c.4-.4,1-.6,1.5-.7.6,0,1.1.3,1.5.7l1,1,38.5,37.9c1.4,1.4-.5,3.3-2.6,2.8h0Z"/>
      </g>
    </g>
  </g>
</svg>