<?xml version="1.0" encoding="UTF-8"?>
<svg xmlns="http://www.w3.org/2000/svg" version="1.1" viewBox="0 0 500 500">
  <defs>
    <style>
      .cls-1 {
        fill: #eee;
      }
    </style>
  </defs>
  <!-- Generator: Adobe Illustrator 28.6.0, SVG Export Plug-In . SVG Version: 1.2.0 Build 709)  -->
  <g>
    <g id="Capa_1">
      <g>
        <g>
          <g>
            <path class="cls-1" d="M430.2,40.3h-146.8V4.8h-13.3v199.4h13.3v-79.8h44.3v48.8h13.3v-48.8h117.5v168.4h13.3V81.8c0-22.9-18.6-41.5-41.5-41.5ZM327.7,111.2h-44.3v-57.6h44.3v57.6ZM458.4,111.2h-117.5v-57.6h89.2c15.6,0,28.2,12.7,28.2,28.2v29.4h0Z"/>
            <path class="cls-1" d="M216.9,439.2v-48.8h44.3v-13.3h-44.3v-48.8h44.3v-13.3h-44.3v-35.5h-13.3v35.5h-110.8v-35.5h-13.3v35.5H19.6v-35.5H6.4v131.3c0,22.9,18.6,41.5,41.5,41.5h235.5v-13.3h-66.5ZM79.5,439.2h-31.6c-15.6,0-28.2-12.7-28.2-28.2v-20.5h59.8v48.8ZM79.5,377.1H19.6v-48.8h59.8s0,48.8,0,48.8ZM203.6,439.2h-110.8v-48.8h110.8v48.8ZM203.6,377.1h-110.8v-48.8h110.8v48.8Z"/>
          </g>
          <path class="cls-1" d="M492.4,360.1l-100.5,129.5-2.6,3.3c-1.1,1.4-2.5,2.1-4,2.3-1.5-.2-2.9-.9-4-2.3l-2.6-3.3-100.5-129.5c-3.6-4.7,1.1-11.3,6.7-9.3l64.9,22.6v-182.4h70.9v182.4l64.9-22.6c5.6-2,10.3,4.6,6.7,9.3h0Z"/>
        </g>
        <path class="cls-1" d="M130.2,264.1c-2.7-1.1-4.6-3.1-6.5-5.3-18.4-21.5-35.5-44-50.5-68-8.9-14.2-16.9-29-23.4-44.5-4.6-11.1-8.3-22.5-10-34.4-1.2-8.4-1.1-16.9,0-25.3,1.1-7.4,3-14.6,5.7-21.6,2.6-6.7,6.1-12.9,10.2-18.8,4.7-6.7,10.2-12.7,16.4-18,4.8-4.1,10-7.6,15.6-10.6,8.3-4.5,17.1-7.7,26.4-9.5,9.3-1.8,18.6-2.3,28.1-1.3,13.5,1.5,26.1,5.7,37.8,12.7,11.8,7.1,21.7,16.4,29.4,27.7,6.3,9.2,10.7,19.3,13.4,30.2,2.3,9.4,3.1,19,2.4,28.7-.6,8.7-2.7,17.2-5.3,25.5-3.9,12.4-9.3,24.2-15.4,35.7-12.6,24-27.8,46.3-44.5,67.5-6.3,8-12.9,15.9-19.4,23.8-1.8,2.2-3.8,4.2-6.5,5.3h-4ZM179.1,99.8c.2-24.7-19.6-46.9-46.7-47-27.1-.1-47,22-47.1,46.7-.1,24.9,19.7,47.1,46.9,47.2,27,0,47-21.9,47-46.8h0Z"/>
      </g>
    </g>
  </g>
</svg>