<?xml version="1.0" encoding="UTF-8"?>
<svg id="Capa_1" xmlns="http://www.w3.org/2000/svg" viewBox="0 0 341.5 351.63">
  <defs>
    <style>
      .cls-1 {
        fill: #ffffff;
      }
    </style>
  </defs>
  <path class="cls-1" d="M2.73,122.05h335.8c.07,1.2.19,2.28.2,3.36,0,62.5.02,125,0,187.5,0,17.12-10.38,31.08-26.39,35.22-3.81.99-7.9,1.27-11.86,1.28-52,.08-104,.05-156,.05-35,0-70,0-105,0-12.15,0-22.1-4.59-29.56-14.23-4.56-5.9-6.85-12.67-7.16-20.1-.05-1.25-.03-2.49-.03-3.74,0-61.63,0-123.26,0-184.88,0-1.36,0-2.72,0-4.47ZM86.81,169.83c-4,0-8-.08-11.99.02-6.91.16-11.98,5.22-12.06,12.17-.1,7.85-.1,15.71,0,23.56.09,6.95,5.14,12.02,12.09,12.13,7.87.11,15.74.1,23.6,0,7.18-.09,12.17-5.13,12.25-12.35.09-7.73.09-15.46,0-23.18-.08-7.19-5.11-12.19-12.28-12.33-3.87-.07-7.74-.01-11.62-.01ZM170.64,169.82c-3.87,0-7.74-.06-11.62.01-7.14.13-12.2,5.18-12.27,12.34-.08,7.73-.08,15.46,0,23.18.08,7.17,5.12,12.25,12.27,12.34,7.74.1,15.49.09,23.23,0,7.41-.08,12.39-5.09,12.46-12.53.07-7.6.07-15.21,0-22.81-.07-7.42-5.07-12.42-12.46-12.54-3.87-.06-7.74-.01-11.62,0ZM254.35,217.72c4.12,0,8.25.09,12.36-.02,6.78-.18,11.85-5.13,11.97-11.86.14-7.98.12-15.96,0-23.93-.1-6.95-5.18-11.97-12.16-12.06-7.87-.1-15.74-.1-23.6,0-6.96.09-12.07,5.14-12.17,12.05-.11,7.85-.1,15.71,0,23.56.08,7.14,5.16,12.13,12.36,12.26,3.75.07,7.49.01,11.24,0ZM62.73,277.23c0,4.11-.08,8.23.02,12.34.17,6.73,5.16,11.83,11.89,11.95,7.99.14,15.99.12,23.98,0,6.97-.1,11.98-5.15,12.07-12.14.11-7.85.11-15.71,0-23.56-.09-6.98-5.13-12.04-12.07-12.14-7.87-.11-15.74-.1-23.6,0-7.14.08-12.16,5.17-12.28,12.34-.06,3.74-.01,7.48,0,11.22ZM146.73,277.61c0,3.99-.08,7.98.02,11.97.17,6.73,5.17,11.83,11.9,11.95,7.99.14,15.99.12,23.98,0,6.97-.1,11.98-5.16,12.07-12.14.11-7.85.11-15.71,0-23.56-.09-6.98-5.13-12.04-12.07-12.14-7.87-.11-15.74-.1-23.6,0-7.14.08-12.16,5.17-12.28,12.34-.07,3.86-.01,7.73,0,11.59Z"/>
  <path class="cls-1" d="M278.73,13.85c10.44.29,20.5-.21,30.33,1.03,16.2,2.05,28.86,15.87,29.44,32.07.6,16.8.13,33.64.13,50.73H3.02c-.09-.7-.28-1.52-.28-2.34-.02-15.21-.1-30.43.01-45.64.15-19.81,15.61-35.29,35.44-35.55,7.99-.11,15.98-.02,24.25-.02.1,1.06.27,2,.27,2.94.02,7.11-.07,14.22.04,21.33.31,20.26,16.83,36.07,37.08,35.58,18.66-.46,34.24-15.78,34.81-34.42.22-7.1.06-14.22.08-21.32,0-1.22,0-2.45,0-3.88h72c0,1.33,0,2.54,0,3.75,0,6.86-.09,13.72.03,20.58.32,18.12,13.79,33.05,32.12,35.1,18.88,2.11,34.7-10.54,38.6-26.77.81-3.36,1.12-6.89,1.2-10.35.18-7.34.05-14.68.05-22.81Z"/>
  <path class="cls-1" d="M110.73,26.48c0,3.62.04,7.23,0,10.85-.08,7.33-5.1,12.67-11.9,12.72-6.81.05-12.01-5.3-12.07-12.54-.06-7.61-.06-15.21,0-22.82.06-7.28,5.23-12.57,12.08-12.52,6.66.05,11.77,5.31,11.89,12.35.07,3.99.01,7.98.01,11.97Z"/>
  <path class="cls-1" d="M230.73,25.78c0-3.74-.05-7.48.01-11.22.11-7.08,5.14-12.32,11.82-12.4,6.82-.09,12.08,5.23,12.15,12.47.07,7.61.07,15.21,0,22.82-.06,7.28-5.2,12.61-12.02,12.6-6.8-.02-11.88-5.37-11.96-12.66-.04-3.87,0-7.73,0-11.6Z"/>
</svg>
