<?xml version="1.0" encoding="UTF-8"?>
<svg xmlns="http://www.w3.org/2000/svg" version="1.1" viewBox="0 0 76 76">
  <defs>
    <style>
      .cls-1 {
        fill: #eee;
      }
    </style>
  </defs>
  <!-- Generator: Adobe Illustrator 28.6.0, SVG Export Plug-In . SVG Version: 1.2.0 Build 709)  -->
  <g>
    <g id="Capa_1">
      <g>
        <path class="cls-1" d="M48.9,15.6c3.9,3.9,7.7,7.7,11.5,11.6-.1.1-.3.3-.5.5-8.2,8.2-16.5,16.5-24.8,24.8-.6.6-1.2.9-2,1-3.5.7-7,1.4-10.5,2.1-.2,0-.5,0-.8,0-.8,0-1.4-.7-1.5-1.5,0-.2,0-.4,0-.6.8-3.7,1.5-7.5,2.2-11.2.1-.6.4-1,.8-1.3,4.8-4.8,9.6-9.6,14.5-14.5l10.3-10.3c.2-.2.4-.4.5-.6Z"/>
        <path class="cls-1" d="M52.6,12.1c1.7-1.7,3.2-3.4,4.8-4.9,2.3-2.1,5.1-2.6,8.1-1.5,2.9,1.1,4.7,3.2,5.3,6.4.4,2.5-.2,4.8-2,6.7-1.5,1.6-3.2,3.1-4.8,4.8-1.9-1.8-3.8-3.8-5.7-5.7-1.9-1.9-3.8-3.8-5.7-5.7h0Z"/>
      </g>
      <path class="cls-1" d="M55.6,41.8v19.1c0,1.2-1,2.3-2.3,2.3H15c-1.2,0-2.3-1-2.3-2.3V19.6c0-1.2,1-2.3,2.3-2.3h16.1v-7.6H15c-5.5,0-9.9,4.4-9.9,9.9v41.4c0,5.5,4.4,9.9,9.9,9.9h38.3c5.5,0,9.9-4.4,9.9-9.9v-19.1h-7.7Z"/>
    </g>
  </g>
</svg>