<?xml version="1.0" encoding="UTF-8"?>
<svg id="Capa_1" xmlns="http://www.w3.org/2000/svg" viewBox="0 0 76 76">
  <defs>
    <style>
      .cls-1 {
        fill: #fff;
      }
    </style>
  </defs>
  <path class="cls-1" d="M10.5,30.1c-.73-.43-1.41-.76-2.01-1.21-1.64-1.22-2.62-2.86-2.87-4.91-.07-.57-.11-1.14-.12-1.71-.02-1.41-.03-2.82,0-4.22.08-3.72,2.39-6.3,5.19-7.13.84-.25,1.74-.38,2.61-.39,3.75-.04,7.51-.02,11.26-.02.28,0,.56,0,.88,0,.16-.72.03-1.4.09-2.06.08-.83.08-1.68.31-2.46.91-3.06,2.96-4.87,6.14-5.36.54-.08,1.09-.12,1.63-.12,3.02-.01,6.05,0,9.07,0,1.05,0,2.08.14,3.05.55,2.61,1.1,4.17,3.03,4.59,5.84.1.64.11,1.29.13,1.94.02.52,0,1.04,0,1.64.32.01.6.03.88.03,3.83,0,7.66-.01,11.5,0,2.15.01,4.03.72,5.54,2.29,1.41,1.46,2.05,3.24,2.1,5.23.04,1.64.07,3.29,0,4.93-.13,3.05-1.5,5.36-4.3,6.73-.21.1-.42.21-.69.35,0,.29,0,.6,0,.91,0,12.23,0,24.45,0,36.68,0,1.79-.41,3.46-1.53,4.9-1.24,1.59-2.83,2.59-4.85,2.84-.7.08-1.4.13-2.1.13-12.88,0-25.75,0-38.63,0-1.79,0-3.46-.44-4.89-1.54-1.6-1.23-2.59-2.83-2.83-4.85-.08-.67-.13-1.35-.13-2.02,0-12.02,0-24.03,0-36.05v-.93ZM22.93,50.52c0,2.53,0,5.06,0,7.58,0,1.11.61,1.87,1.6,2.29.97.41,1.89.22,2.68-.5.57-.52.82-1.17.82-1.95-.01-4.95,0-9.9,0-14.85,0-.13,0-.26,0-.39-.1-1.12-1.15-2.15-2.27-2.23-1.61-.11-2.81.99-2.82,2.62,0,2.48,0,4.95,0,7.43ZM40.54,50.52c0-2.53.01-5.06,0-7.58,0-1.11-.62-1.85-1.59-2.3-.92-.42-2-.18-2.74.55-.55.54-.77,1.2-.77,1.97.01,4.9,0,9.8,0,14.7,0,.16,0,.31,0,.47.09,1.11,1.15,2.15,2.26,2.23,1.61.12,2.81-.99,2.82-2.62,0-2.48,0-4.95,0-7.43ZM53.05,50.52c0-2.53.01-5.06,0-7.58,0-1.11-.62-1.86-1.59-2.3-.92-.42-2-.18-2.74.55-.55.54-.77,1.2-.77,1.97.01,4.9,0,9.8,0,14.7,0,.16,0,.31,0,.47.09,1.11,1.15,2.15,2.26,2.23,1.61.12,2.81-.99,2.82-2.62,0-2.48,0-4.95,0-7.43Z"/>
</svg>
