<?xml version="1.0" encoding="UTF-8" standalone="no"?>
<!DOCTYPE svg PUBLIC "-//W3C//DTD SVG 1.1//EN" "http://www.w3.org/Graphics/SVG/1.1/DTD/svg11.dtd">
<svg width="100%" height="100%" viewBox="0 0 7050 1700" version="1.1" xmlns="http://www.w3.org/2000/svg" xmlns:xlink="http://www.w3.org/1999/xlink" xml:space="preserve" xmlns:serif="http://www.serif.com/" style="fill-rule:evenodd;clip-rule:evenodd;stroke-linejoin:round;stroke-miterlimit:2;">
    <g transform="matrix(4.16667,0,0,4.16667,0,0)">
        <g id="Artboard1" transform="matrix(1,0,0,1,1,3)">
            <rect x="-1" y="-3" width="1692" height="408" style="fill:none;"/>
            <clipPath id="_clip1">
                <rect x="-1" y="-3" width="1692" height="408"/>
            </clipPath>
            <g clip-path="url(#_clip1)">
                <g transform="matrix(21.3915,0,0,21.3915,845.641,482.915)">
                    <path d="M0,-26.333L-37.827,-26.333C-38.409,-26.329 -38.948,-26.176 -39.436,-25.861C-40.209,-25.361 -40.674,-24.655 -40.828,-23.744C-40.863,-23.536 -40.864,-23.326 -40.864,-23.116C-40.865,-16.495 -40.865,-9.874 -40.865,-3.253C-40.865,-3.164 -40.863,-3.075 -40.861,-2.986C-40.858,-2.796 -40.833,-2.609 -40.792,-2.424C-40.549,-1.306 -39.662,-0.393 -38.552,-0.12C-38.27,-0.051 -37.984,-0.026 -37.693,-0.026C-14.019,-0.027 9.655,-0.027 33.33,-0.027C34.811,-0.027 36.292,-0.027 37.773,-0.026C37.973,-0.026 38.17,-0.046 38.367,-0.081C39.355,-0.258 40.246,-0.955 40.643,-1.944C40.798,-2.329 40.865,-2.729 40.864,-3.143C40.863,-9.832 40.863,-16.522 40.863,-23.211L40.863,-23.337C40.861,-23.532 40.837,-23.724 40.797,-23.915C40.568,-24.999 39.746,-25.891 38.681,-26.206C38.371,-26.298 38.056,-26.334 37.733,-26.334C25.155,-26.333 12.578,-26.333 0,-26.333M38.083,0.321L-38.08,0.321C-38.093,0.292 -38.121,0.293 -38.146,0.289C-38.26,0.27 -38.374,0.253 -38.487,0.231C-39.654,-0.002 -40.626,-0.858 -41.013,-1.99C-41.11,-2.274 -41.163,-2.566 -41.192,-2.864C-41.17,-2.883 -41.167,-2.909 -41.168,-2.935C-41.168,-3.009 -41.169,-3.082 -41.169,-3.156L-41.169,-23.061C-41.169,-23.177 -41.168,-23.292 -41.168,-23.408C-41.168,-23.439 -41.164,-23.471 -41.193,-23.494C-41.172,-23.644 -41.16,-23.796 -41.129,-23.944C-40.789,-25.588 -39.383,-26.603 -37.99,-26.654C-37.891,-26.652 -37.791,-26.648 -37.692,-26.648C-12.489,-26.647 12.713,-26.647 37.915,-26.647C37.941,-26.647 37.967,-26.652 37.993,-26.654C38.14,-26.653 38.287,-26.635 38.431,-26.607C39.76,-26.348 40.642,-25.416 40.994,-24.423C41.065,-24.225 41.128,-24.025 41.142,-23.814C41.132,-23.757 41.133,-23.702 41.171,-23.654L41.171,-2.703C41.131,-2.656 41.133,-2.601 41.142,-2.544C41.134,-2.487 41.13,-2.43 41.118,-2.374C40.868,-1.182 39.97,-0.217 38.839,0.14C38.618,0.21 38.392,0.252 38.164,0.287C38.135,0.291 38.099,0.285 38.083,0.321" style="fill:rgb(229,229,229);fill-rule:nonzero;"/>
                </g>
                <g transform="matrix(1,0,0,1,0,19.6978)">
                    <g transform="matrix(21.3915,0,0,21.3915,79.8253,28.7825)">
                        <path d="M0,14.315C-0.149,14.085 -0.228,13.833 -0.239,13.559C-0.241,13.502 -0.241,13.444 -0.241,13.386C-0.241,9.296 -0.241,5.206 -0.242,1.117C-0.242,0.889 -0.222,0.666 -0.136,0.453C-0.07,0.287 0.012,0.129 0.14,0C0.393,0.281 0.647,0.561 0.9,0.842C1.353,1.345 1.805,1.849 2.258,2.352C2.468,2.586 2.68,2.82 2.89,3.054C3.325,3.538 3.76,4.022 4.195,4.506C4.42,4.756 4.646,5.004 4.87,5.254C5.32,5.753 5.769,6.252 6.217,6.753C6.325,6.874 6.441,6.988 6.536,7.121C6.506,7.157 6.476,7.194 6.445,7.229C5.75,7.993 5.054,8.757 4.359,9.521C2.906,11.119 1.453,12.717 0,14.315" style="fill:rgb(66,133,245);fill-rule:nonzero;"/>
                    </g>
                    <g transform="matrix(21.3915,0,0,21.3915,79.8253,197.818)">
                        <path d="M0,6.413C1.453,4.815 2.906,3.217 4.359,1.619C5.054,0.855 5.75,0.091 6.445,-0.673C6.476,-0.708 6.506,-0.745 6.536,-0.781L6.548,-0.783L6.56,-0.782C6.588,-0.744 6.614,-0.704 6.645,-0.669C6.848,-0.443 7.052,-0.217 7.256,0.008C7.401,0.167 7.547,0.325 7.692,0.484C7.794,0.596 7.896,0.709 7.997,0.823C8.227,1.081 8.456,1.34 8.688,1.598C8.828,1.754 8.971,1.907 9.112,2.062C9.211,2.171 9.31,2.28 9.404,2.392C9.485,2.489 9.57,2.581 9.663,2.665C9.492,2.767 9.323,2.87 9.151,2.97C6.854,4.296 4.557,5.621 2.261,6.947C1.992,7.103 1.707,7.196 1.395,7.19C0.838,7.18 0.397,6.944 0.06,6.505C0.038,6.476 0.02,6.444 0,6.413" style="fill:rgb(234,65,50);fill-rule:nonzero;"/>
                    </g>
                    <g transform="matrix(21.3915,0,0,21.3915,286.54,110.827)">
                        <path d="M0,6.732C-0.094,6.648 -0.179,6.555 -0.26,6.459C-0.354,6.346 -0.453,6.238 -0.551,6.129C-0.692,5.973 -0.836,5.82 -0.976,5.664C-1.207,5.407 -1.436,5.148 -1.667,4.89C-1.768,4.776 -1.87,4.663 -1.972,4.551C-2.117,4.392 -2.263,4.234 -2.407,4.075C-2.612,3.85 -2.815,3.624 -3.018,3.397C-3.05,3.362 -3.075,3.322 -3.104,3.284C-3.074,3.248 -3.047,3.209 -3.015,3.175C-2.56,2.674 -2.105,2.174 -1.649,1.673C-1.187,1.165 -0.724,0.657 -0.263,0.148C-0.221,0.102 -0.17,0.062 -0.149,0C-0.107,0.021 -0.063,0.039 -0.023,0.062C1.076,0.696 2.175,1.33 3.274,1.964C3.674,2.195 3.946,2.525 4.069,2.974C4.256,3.657 3.988,4.423 3.339,4.812C3.033,4.995 2.723,5.17 2.414,5.348C1.66,5.783 0.907,6.218 0.153,6.653C0.104,6.682 0.051,6.706 0,6.732" style="fill:rgb(255,187,0);fill-rule:nonzero;"/>
                    </g>
                    <g transform="matrix(21.3915,0,0,21.3915,283.359,83.6174)">
                        <path d="M0,1.272C-0.021,1.334 -0.072,1.374 -0.114,1.42C-0.575,1.929 -1.038,2.437 -1.501,2.945C-1.956,3.445 -2.411,3.946 -2.866,4.447C-2.898,4.481 -2.925,4.52 -2.955,4.556L-2.967,4.556L-2.979,4.557C-3.073,4.425 -3.189,4.311 -3.297,4.19C-3.745,3.689 -4.195,3.19 -4.644,2.69C-4.869,2.441 -5.095,2.192 -5.32,1.943C-5.755,1.459 -6.189,0.974 -6.625,0.49C-6.835,0.256 -7.046,0.023 -7.257,-0.211C-7.71,-0.715 -8.162,-1.219 -8.615,-1.722C-8.868,-2.003 -9.122,-2.283 -9.375,-2.563C-9.309,-2.674 -9.211,-2.755 -9.109,-2.827C-8.538,-3.23 -7.936,-3.285 -7.317,-2.952C-6.883,-2.719 -6.462,-2.462 -6.035,-2.216C-4.063,-1.078 -2.092,0.06 -0.12,1.198C-0.08,1.222 -0.04,1.247 0,1.272" style="fill:rgb(1,174,69);fill-rule:nonzero;"/>
                    </g>
                </g>
                <g transform="matrix(1,0,0,1,0,-89.465)">
                    <g transform="matrix(21.3915,0,0,21.3915,889.566,335.733)">
                        <path d="M0,-2.414C0.003,-2.346 0.004,-2.278 0.011,-2.21C0.04,-1.881 0.158,-1.588 0.382,-1.343C0.687,-1.009 1.073,-0.866 1.517,-0.936C2.033,-1.016 2.386,-1.318 2.558,-1.81C2.694,-2.197 2.689,-2.595 2.558,-2.985C2.384,-3.5 1.924,-3.839 1.387,-3.866C0.805,-3.895 0.347,-3.567 0.132,-3.088C0.036,-2.873 0,-2.647 0,-2.414M2.653,-4.234C2.653,-4.427 2.654,-4.604 2.653,-4.781C2.653,-4.906 2.65,-4.901 2.773,-4.901C3.12,-4.9 3.466,-4.901 3.813,-4.901C3.833,-4.901 3.854,-4.9 3.875,-4.9C3.906,-4.9 3.925,-4.886 3.926,-4.854C3.927,-4.818 3.927,-4.781 3.927,-4.744C3.927,-3.117 3.927,-1.49 3.928,0.137C3.928,0.443 3.893,0.744 3.797,1.036C3.552,1.781 3.042,2.252 2.297,2.476C2.059,2.548 1.815,2.576 1.567,2.583C1.145,2.594 0.729,2.554 0.327,2.415C0.026,2.311 -0.247,2.159 -0.483,1.944C-0.819,1.638 -1.01,1.257 -1.069,0.808C-1.078,0.744 -1.068,0.733 -1.009,0.73L-0.993,0.73C-0.631,0.73 -0.269,0.73 0.094,0.729C0.144,0.729 0.182,0.734 0.203,0.792C0.313,1.088 0.536,1.269 0.823,1.378C1.12,1.491 1.427,1.508 1.736,1.443C2.241,1.337 2.561,0.982 2.627,0.47C2.645,0.335 2.655,0.199 2.654,0.062C2.651,-0.132 2.653,-0.326 2.653,-0.52C2.653,-0.54 2.659,-0.566 2.632,-0.572C2.609,-0.576 2.598,-0.553 2.586,-0.538C2.47,-0.393 2.333,-0.272 2.182,-0.165C1.827,0.085 1.429,0.2 0.998,0.196C0.244,0.189 -0.359,-0.122 -0.803,-0.733C-1.028,-1.043 -1.171,-1.392 -1.239,-1.768C-1.332,-2.275 -1.323,-2.781 -1.184,-3.28C-1.084,-3.639 -0.917,-3.964 -0.671,-4.244C-0.31,-4.655 0.144,-4.893 0.687,-4.965C1.015,-5.008 1.337,-4.987 1.653,-4.895C2.008,-4.79 2.31,-4.597 2.555,-4.317C2.578,-4.29 2.592,-4.253 2.653,-4.234" style="fill:rgb(229,229,229);fill-rule:nonzero;"/>
                    </g>
                    <g transform="matrix(21.3915,0,0,21.3915,574.484,256.681)">
                        <path d="M0,1.264L-1.983,1.264C-2.025,1.264 -2.067,1.264 -2.109,1.263C-2.138,1.263 -2.157,1.248 -2.16,1.217C-2.161,1.202 -2.161,1.186 -2.161,1.17L-2.161,0.383C-2.161,0.367 -2.16,0.351 -2.158,0.336C-2.155,0.312 -2.14,0.299 -2.117,0.297C-2.086,0.295 -2.054,0.295 -2.023,0.295L1.112,0.295C1.144,0.295 1.175,0.295 1.207,0.296C1.238,0.296 1.257,0.311 1.259,0.342C1.261,0.379 1.26,0.415 1.26,0.452C1.26,0.725 1.258,0.998 1.262,1.271C1.263,1.388 1.247,1.501 1.216,1.613C0.884,2.802 -0.059,3.549 -1.034,3.775C-1.753,3.941 -2.467,3.9 -3.149,3.61C-4.153,3.183 -4.77,2.423 -4.989,1.354C-5.121,0.71 -5.09,0.067 -4.857,-0.553C-4.473,-1.575 -3.741,-2.225 -2.684,-2.49C-1.936,-2.677 -1.193,-2.632 -0.476,-2.336C0.254,-2.035 0.77,-1.516 1.053,-0.774C1.064,-0.745 1.075,-0.715 1.085,-0.685C1.106,-0.622 1.098,-0.609 1.036,-0.606L1.005,-0.606C0.585,-0.606 0.165,-0.608 -0.255,-0.605C-0.321,-0.604 -0.359,-0.624 -0.394,-0.68C-0.696,-1.168 -1.152,-1.386 -1.709,-1.419C-2.012,-1.438 -2.308,-1.401 -2.589,-1.287C-3.108,-1.077 -3.445,-0.692 -3.626,-0.17C-3.75,0.188 -3.778,0.557 -3.739,0.933C-3.711,1.196 -3.651,1.45 -3.532,1.688C-3.262,2.231 -2.827,2.563 -2.23,2.678C-1.886,2.744 -1.541,2.738 -1.201,2.647C-0.797,2.539 -0.486,2.304 -0.26,1.955C-0.14,1.768 -0.061,1.563 -0.008,1.347C-0.003,1.328 -0.004,1.307 0,1.264" style="fill:rgb(229,229,229);fill-rule:nonzero;"/>
                    </g>
                    <g transform="matrix(21.3915,0,0,21.3915,1412,286.392)">
                        <path d="M0,-0.102C0.003,-0.039 0.004,0.024 0.009,0.087C0.037,0.416 0.153,0.71 0.375,0.956C0.687,1.301 1.082,1.446 1.538,1.367C2.058,1.277 2.406,0.965 2.569,0.462C2.69,0.087 2.69,-0.296 2.559,-0.667C2.38,-1.177 2.017,-1.487 1.476,-1.549C0.909,-1.613 0.474,-1.384 0.187,-0.889C0.046,-0.647 -0.002,-0.38 0,-0.102M2.624,1.737C2.607,1.756 2.589,1.775 2.572,1.794C2.257,2.164 1.86,2.4 1.381,2.47C0.491,2.601 -0.243,2.322 -0.788,1.594C-1.04,1.256 -1.187,0.871 -1.253,0.455C-1.321,0.02 -1.316,-0.413 -1.217,-0.843C-1.111,-1.302 -0.904,-1.71 -0.57,-2.045C-0.221,-2.395 0.202,-2.596 0.693,-2.659C1.026,-2.703 1.354,-2.68 1.673,-2.58C2.01,-2.474 2.296,-2.283 2.536,-2.024C2.561,-1.997 2.584,-1.968 2.609,-1.942C2.614,-1.937 2.628,-1.938 2.637,-1.939C2.65,-1.941 2.652,-1.95 2.652,-1.963C2.65,-1.994 2.652,-2.026 2.652,-2.057C2.652,-2.215 2.651,-2.372 2.653,-2.53C2.653,-2.583 2.663,-2.593 2.717,-2.593C3.016,-2.594 3.315,-2.594 3.614,-2.594C3.693,-2.594 3.772,-2.595 3.85,-2.594C3.925,-2.593 3.926,-2.591 3.928,-2.51L3.928,2.259C3.928,2.296 3.927,2.333 3.927,2.369C3.927,2.4 3.915,2.419 3.882,2.42C3.867,2.42 3.851,2.421 3.835,2.421L2.717,2.421C2.662,2.418 2.653,2.411 2.653,2.358C2.651,2.2 2.652,2.043 2.652,1.886L2.652,1.748C2.643,1.744 2.633,1.741 2.624,1.737" style="fill:rgb(229,229,229);fill-rule:nonzero;"/>
                    </g>
                    <g transform="matrix(21.3915,0,0,21.3915,1100.06,294.508)">
                        <path d="M0,-0.941L1.023,-0.941C1.06,-0.941 1.097,-0.94 1.133,-0.942C1.186,-0.944 1.199,-0.958 1.194,-1.009C1.167,-1.324 1.037,-1.583 0.779,-1.771C0.493,-1.979 0.172,-2.048 -0.175,-2.001C-0.694,-1.931 -1.077,-1.56 -1.164,-1.045C-1.167,-1.024 -1.17,-1.003 -1.171,-0.982C-1.172,-0.957 -1.156,-0.944 -1.133,-0.943C-1.092,-0.941 -1.05,-0.941 -1.008,-0.941L0,-0.941M2.374,0.465C2.367,0.505 2.367,0.526 2.36,0.545C2.053,1.374 1.471,1.89 0.604,2.069C0.151,2.163 -0.304,2.147 -0.75,2.014C-1.504,1.789 -2.032,1.31 -2.301,0.571C-2.564,-0.151 -2.558,-0.883 -2.271,-1.597C-1.958,-2.379 -1.365,-2.838 -0.544,-3.002C-0.035,-3.104 0.47,-3.081 0.961,-2.907C1.738,-2.632 2.22,-2.082 2.427,-1.289C2.523,-0.925 2.529,-0.553 2.49,-0.179C2.481,-0.098 2.472,-0.089 2.395,-0.087C2.353,-0.086 2.311,-0.087 2.269,-0.087L-0.991,-0.087C-1.233,-0.087 -1.208,-0.104 -1.159,0.127C-1.067,0.567 -0.81,0.871 -0.378,1.012C-0.127,1.094 0.13,1.091 0.383,1.02C0.614,0.955 0.794,0.815 0.927,0.616C0.95,0.581 0.969,0.544 0.991,0.508C1.009,0.479 1.032,0.462 1.068,0.465C1.105,0.467 1.141,0.465 1.178,0.465L2.374,0.465Z" style="fill:rgb(229,229,229);fill-rule:nonzero;"/>
                    </g>
                    <g transform="matrix(21.3915,0,0,21.3915,1246.75,296.409)">
                        <path d="M0,-2.419C0,-2.141 0,-1.863 0.001,-1.584C0.001,-1.509 0.009,-1.5 0.08,-1.5C0.411,-1.5 0.741,-1.499 1.072,-1.502C1.219,-1.504 1.365,-1.523 1.505,-1.574C1.767,-1.67 1.93,-1.853 2.001,-2.121C2.043,-2.281 2.046,-2.444 2.023,-2.605C1.971,-2.972 1.765,-3.204 1.401,-3.29C1.273,-3.32 1.143,-3.337 1.012,-3.336L0.145,-3.336C0.114,-3.336 0.082,-3.336 0.051,-3.335C0.019,-3.334 0.004,-3.314 0.002,-3.285C-0.001,-3.248 0,-3.212 0,-3.175L0,-2.419M-0.014,1.945C-0.034,1.947 -0.054,1.952 -0.074,1.952C-0.441,1.953 -0.809,1.953 -1.176,1.953C-1.197,1.953 -1.219,1.954 -1.239,1.948C-1.251,1.944 -1.267,1.93 -1.269,1.918C-1.273,1.882 -1.273,1.845 -1.273,1.808L-1.273,-4.175C-1.273,-4.217 -1.274,-4.259 -1.272,-4.301C-1.27,-4.361 -1.261,-4.369 -1.195,-4.372C-1.163,-4.373 -1.132,-4.372 -1.1,-4.372C-0.407,-4.372 0.285,-4.373 0.978,-4.372C1.262,-4.372 1.545,-4.353 1.822,-4.287C2.064,-4.23 2.291,-4.139 2.502,-4.008C2.859,-3.785 3.106,-3.476 3.237,-3.076C3.375,-2.655 3.379,-2.23 3.249,-1.807C3.091,-1.289 2.748,-0.931 2.264,-0.702C2.045,-0.598 1.811,-0.54 1.571,-0.506C1.378,-0.479 1.184,-0.472 0.99,-0.473C0.717,-0.474 0.444,-0.473 0.171,-0.473C0.134,-0.473 0.097,-0.472 0.061,-0.473C0.023,-0.473 0.001,-0.458 0.001,-0.419C0.001,-0.377 0,-0.335 0,-0.293L0,1.77C-0.001,1.826 0.011,1.885 -0.014,1.945" style="fill:rgb(229,229,229);fill-rule:nonzero;"/>
                    </g>
                    <g transform="matrix(21.3915,0,0,21.3915,697.295,282.646)">
                        <path d="M0,0.09C-0.001,-0.068 -0.011,-0.224 -0.045,-0.379C-0.195,-1.08 -0.841,-1.531 -1.586,-1.363C-2.062,-1.257 -2.364,-0.942 -2.495,-0.476C-2.601,-0.101 -2.597,0.282 -2.496,0.659C-2.354,1.184 -1.922,1.557 -1.352,1.57C-0.827,1.582 -0.324,1.313 -0.105,0.738C-0.025,0.529 0,0.312 0,0.09M-1.241,2.679C-1.709,2.683 -2.159,2.602 -2.576,2.377C-3.236,2.02 -3.63,1.461 -3.789,0.737C-3.89,0.28 -3.888,-0.181 -3.768,-0.636C-3.542,-1.498 -3.005,-2.084 -2.16,-2.364C-1.466,-2.593 -0.771,-2.562 -0.104,-2.252C0.63,-1.911 1.073,-1.325 1.245,-0.538C1.349,-0.064 1.344,0.414 1.201,0.879C0.924,1.786 0.311,2.351 -0.602,2.595C-0.811,2.651 -1.026,2.668 -1.241,2.679" style="fill:rgb(229,229,229);fill-rule:nonzero;"/>
                    </g>
                    <g transform="matrix(21.3915,0,0,21.3915,765.912,285.35)">
                        <path d="M0,-0.075C0,0.128 0.019,0.3 0.058,0.469C0.212,1.151 0.831,1.588 1.589,1.401C2.045,1.288 2.339,0.993 2.483,0.554C2.611,0.165 2.604,-0.23 2.492,-0.624C2.321,-1.224 1.705,-1.66 0.97,-1.487C0.528,-1.383 0.24,-1.093 0.093,-0.665C0.024,-0.465 0.005,-0.256 0,-0.075M-1.288,-0.011C-1.283,-0.448 -1.219,-0.85 -1.037,-1.225C-0.68,-1.958 -0.091,-2.4 0.702,-2.57C1.209,-2.679 1.716,-2.656 2.207,-2.483C3.073,-2.177 3.609,-1.569 3.81,-0.676C3.928,-0.154 3.913,0.371 3.732,0.876C3.433,1.714 2.836,2.243 1.978,2.464C1.439,2.604 0.895,2.592 0.365,2.409C-0.463,2.122 -0.974,1.539 -1.2,0.699C-1.264,0.459 -1.281,0.213 -1.288,-0.011" style="fill:rgb(229,229,229);fill-rule:nonzero;"/>
                    </g>
                    <g transform="matrix(21.3915,0,0,21.3915,1530.31,231.888)">
                        <path d="M0,7.324C0,7.269 0.032,7.226 0.052,7.179C0.371,6.443 0.69,5.708 1.01,4.972C1.02,4.948 1.028,4.923 1.041,4.9C1.065,4.86 1.061,4.824 1.043,4.782C0.979,4.633 0.919,4.481 0.857,4.331C0.279,2.926 -0.299,1.521 -0.876,0.114C-0.895,0.068 -0.932,0.024 -0.918,-0.033C-0.889,-0.053 -0.857,-0.046 -0.826,-0.046L0.371,-0.046C0.397,-0.046 0.423,-0.045 0.449,-0.044C0.472,-0.042 0.488,-0.031 0.496,-0.009C0.508,0.026 0.521,0.06 0.534,0.094C0.922,1.146 1.311,2.198 1.701,3.249C1.722,3.306 1.73,3.369 1.785,3.424C2.22,2.265 2.652,1.113 3.085,-0.041L4.413,-0.041C4.425,0.025 4.388,0.074 4.366,0.125C4.114,0.73 3.859,1.333 3.605,1.937C2.874,3.676 2.144,5.416 1.411,7.154C1.317,7.377 1.383,7.338 1.132,7.34C0.801,7.342 0.47,7.341 0.14,7.34C0.094,7.339 0.046,7.351 0,7.324" style="fill:rgb(229,229,229);fill-rule:nonzero;"/>
                    </g>
                    <g transform="matrix(21.3915,0,0,21.3915,1027.31,266.091)">
                        <path d="M0,-3.134L0,3.194C0,3.241 0,3.288 -0.004,3.335C-0.005,3.346 -0.021,3.362 -0.033,3.365C-0.052,3.371 -0.074,3.37 -0.095,3.37L-1.181,3.37C-1.197,3.37 -1.213,3.37 -1.228,3.368C-1.251,3.366 -1.266,3.354 -1.267,3.329C-1.268,3.292 -1.269,3.256 -1.269,3.219L-1.269,-3.203C-1.271,-3.341 -1.265,-3.336 -1.143,-3.335L-0.623,-3.335C-0.44,-3.335 -0.256,-3.336 -0.072,-3.334C-0.01,-3.334 -0.003,-3.324 0,-3.259C0.001,-3.218 0,-3.176 0,-3.134Z" style="fill:rgb(229,229,229);fill-rule:nonzero;"/>
                    </g>
                    <g transform="matrix(21.3915,0,0,21.3915,1364.5,266.547)">
                        <path d="M0,-0.008L0,3.155C0,3.203 0,3.25 -0.001,3.297C-0.001,3.327 -0.013,3.347 -0.046,3.347C-0.072,3.348 -0.098,3.349 -0.124,3.349L-1.147,3.349C-1.174,3.349 -1.2,3.348 -1.226,3.347C-1.249,3.345 -1.265,3.334 -1.266,3.308C-1.267,3.272 -1.268,3.235 -1.268,3.198L-1.268,-3.191C-1.268,-3.228 -1.268,-3.265 -1.267,-3.302C-1.266,-3.34 -1.244,-3.356 -1.206,-3.356L-0.734,-3.356C-0.514,-3.356 -0.293,-3.357 -0.073,-3.356C-0.011,-3.355 -0.003,-3.345 0,-3.282C0.001,-3.24 0,-3.198 0,-3.156L0,-0.008" style="fill:rgb(229,229,229);fill-rule:nonzero;"/>
                    </g>
                </g>
            </g>
        </g>
    </g>
</svg>
