<?xml version="1.0" encoding="UTF-8"?>
<svg id="Capa_1" xmlns="http://www.w3.org/2000/svg" version="1.1" viewBox="0 0 1080 1080">
  <!-- Generator: Adobe Illustrator 29.6.0, SVG Export Plug-In . SVG Version: 2.1.1 Build 207)  -->
  <defs>
    <style>
      .st0 {
        fill: #ffe2da;
      }

      .st1 {
        fill: #898989;
      }

      .st2 {
        fill: #ff5100;
      }

      .st3 {
        fill: #d8f8f7;
      }

      .st4 {
        fill: #00a5b8;
      }

      .st5 {
        fill: #606060;
      }

      .st6 {
        fill: #d2f0f2;
      }

      .st7 {
        fill: #e5e5e5;
      }

      .st8 {
        fill: #98dbe3;
      }

      .st9 {
        fill: #f9f9f9;
      }

      .st10 {
        fill: #d6ebfd;
      }

      .st11 {
        fill: #ff7c48;
      }

      .st12 {
        fill: #c6c6c6;
      }

      .st13 {
        fill: #c1eaf3;
      }

      .st14 {
        fill: #fdfdfd;
      }

      .st15 {
        fill: #ffb79e;
      }
    </style>
  </defs>
  <circle class="st9" cx="553.54" cy="597.41" r="379.14"/>
  <g>
    <path class="st5" d="M120.9,909.08c3.2-3.86,5.09-7.05,10.51-7.91,9.52-1.51,41.22-1.29,51.19-.13,16.73,1.93,15.92,23.76-1.6,25.71-8.68.97-49.49.99-55.21-2.53-2.12-1.31-3.03-3.96-4.89-5.52v-9.61Z"/>
    <path class="st5" d="M940.99,909.08v9.61c-1.86,1.56-2.76,4.21-4.89,5.52-5.72,3.52-46.53,3.5-55.21,2.53-17.52-1.95-18.33-23.77-1.6-25.71,9.97-1.15,41.67-1.38,51.19.13,5.42.86,7.31,4.05,10.51,7.91Z"/>
    <path class="st1" d="M253.85,630.38c-.12.5.16,1.13,0,1.6-6.85,20.58-16.78,42.68-24.03,64.07-19.96,58.89-39.43,118.18-61.67,176.19h-29.63l30.43-241.86h84.89Z"/>
    <path class="st1" d="M894.54,676.83c-4.32,33.69-19.47,66.2-20.72,100.02l49.55,97h-28.03l-78.39-91.39c-6.44-12.2-2.84-17.05-2.49-28.74,1.04-35.22,3.87-70.62,4.81-105.71l75.28,28.83Z"/>
    <path class="st5" d="M253.85,631.98l86.51,88.88c5.24,7.24,6.47,17,2.83,25.28-18.62,41.61-33.58,85.21-53.3,126.1h-28.03c6.46-38.42,18.34-75.96,23.97-114.4l-3.15-6.53-52.86-55.26c7.25-21.39,17.18-43.49,24.03-64.07Z"/>
    <path class="st15" d="M204.19,486.22c5.78-.75,15.25-.32,20.82,1.6l81.22,50.91c22.54-.72,45.18-4.04,67.74-6.06-1.83,6.73-12.58,12.83-18.62,15.82-21.2,10.49-44.93,12.89-67.52,5.45-11.22-3.69-32.36-20.44-42.07-17.38s-6.82,13.03-8.65,20.22c-8.81,34.6-33.16,48-68.16,44.76.65-26.56-4.15-73.14,9.87-95.04,5.24-8.18,15.37-18.99,25.37-20.28Z"/>
    <path class="st8" d="M846.49,507.04c3.23,3.39,16.19,10.56,20.82,11.21,1.98,1.71,4.23,3.39,6.41,4.81-6.94,27.49,9.61,69.71-17.72,88.79-11.66,8.14-23.25,8.01-36.74,5.71.22-18.41-.4-36.9-.08-55.32.06-3.63,2.26-7.65,1.45-10.78s-19.51-14.51-23.8-17.18c-.65-8.94-3.74-19.81-8.91-27.13-7.54-10.68-51.63-36.18-65.29-43.64-2.39-1.31-4.71-2.62-7.49-2.91-.21-1.58-1.69-3.27-1.74-7.12-.08-5.45,1.54-10.03,1.74-15.31.46-.58,1.17-1.03,1.6-1.6l129.74,70.48Z"/>
    <path class="st5" d="M819.26,648c-.94,35.09-3.77,70.49-4.81,105.71-7.94,7.81-19.03,13.47-22.35,24.91l-8.09,95.22h-28.83c-.21-3.96.4-8.04-.02-12-3.36-32.19-10.18-69.24-11.22-100.97-.4-12.05,5.33-17.57,11.53-26.88,19.95-29.94,43.15-58.15,63.77-87.59-.01.53.01,1.07,0,1.6Z"/>
    <path class="st2" d="M406.01,529.47c1.09,22.19-15.55,39.68-36.52,44.37-12.13,2.71-55.65,9.15-66.6,8.44-11.82-.77-36.66-20.98-49.03-25.57l-.02,73.68h-84.89c.17-9.58-.23-19.25,0-28.83,35.01,3.24,59.35-10.16,68.16-44.76,1.83-7.18-1.19-17.12,8.65-20.22s30.85,13.68,42.07,17.38c22.6,7.44,46.32,5.04,67.52-5.45,6.04-2.99,16.79-9.09,18.62-15.82,5.63-.51,13.82-2.85,19.22-3.2,4.23-.28,8.57.22,12.81,0Z"/>
    <path class="st4" d="M894.54,676.83l-75.28-28.83c.01-.53-.01-1.07,0-1.6.25-9.58-.11-19.25,0-28.83,13.49,2.31,25.08,2.43,36.74-5.71,27.33-19.09,10.78-61.31,17.72-88.79,10.25,6.67,18.89,15.07,20.68,28.17,5.2,37.9-3.59,86.55.14,125.6Z"/>
    <path class="st0" d="M225.02,487.82c-5.58-1.92-15.04-2.35-20.82-1.6.39-4.59-4.84-4.08-8.02-7.2-1.59-1.56-5.58-7.83-6.06-9.95-1.97-8.83.68-37.79,4.67-45.91,7.1-14.47,22.98-15.06,37.07-11.85,22.67,5.17,19.68,28.97,17.17,46.86s-6.29,24.52-24,29.66Z"/>
    <path class="st0" d="M867.31,518.26c-4.63-.65-17.59-7.82-20.82-11.21-4.86-5.1-7.36-14.6-6.32-21.51.55-3.65,14.83-32.15,17.51-35.37,17.44-21.07,59.1-.11,52.12,26.51-1.32,5.04-15.57,31.77-19.19,35.25-6.46,6.22-14.59,7.57-23.29,6.34Z"/>
    <path class="st4" d="M796.83,534.27c-16.55-10.32-36.89-19.54-52.86-30.43-11.52-7.86-22.57-18.52-27.23-32.03-1.44-4.18-1.08-7.28-1.6-11.21,2.78.29,5.09,1.6,7.49,2.91,13.67,7.46,57.75,32.96,65.29,43.64,5.17,7.32,8.26,18.19,8.91,27.13Z"/>
    <path class="st5" d="M247.94,922.98c-7.61-6.98-3.46-20.22,6.8-21.82,8.83-1.38,43.84-1.38,52.67,0,13.81,2.15,15.39,23-1.65,25.39-10.04,1.4-37.69,1.34-47.94.19-2.96-.33-7.73-1.79-9.87-3.76Z"/>
    <path class="st5" d="M794.78,923.05c-1.77,1.77-7.27,3.4-9.93,3.7-9.86,1.1-40,1.25-49.31-.43-14.92-2.69-14.76-22.87-.29-25.16,7.62-1.2,47.07-1.3,54.03.25,9.64,2.15,11.9,15.21,5.5,21.63Z"/>
    <path class="st14" d="M715.15,460.59c.52,3.93.16,7.04,1.6,11.21-2.79-.54-9.12.97-11-.22-.7-.44-6.3-14.47-6.37-15.29-.23-2.47,13.37-15.11,15.77-18.13-.2,5.27-1.82,9.86-1.74,15.31.05,3.85,1.53,5.54,1.74,7.12Z"/>
  </g>
  <g>
    <path class="st13" d="M775.14,268.19c2.26.99,4.03,2.42,4.61,4.92l.07,20.09c-3.98-3.99-8.03-8.09-12.19-11.88-.55-.5-.82-1.28-1.88-1.25h-80.21c-2.74.1-5.36,2.71-5.47,5.46-.06,37.89.13,75.78.01,113.66-5.22.26-10.29.61-11.26-5.78v-118.82c.26-3.17,1.8-5.16,4.69-6.4h101.61Z"/>
    <path class="st3" d="M765.76,280.07l.29,25.81.65.6c6.31.38,12.72.06,19.06.16l.31.31-.07,90.44c-.55,2.43-2.24,4.05-4.53,4.85l-15.72.07c1.81-18.67-13.62-35.05-32.52-32.83-16.69,1.96-27.71,16.17-26.26,32.83h-26.89c.01-1.04,0-2.09,0-3.13.11-37.88-.08-75.78-.01-113.66.11-2.75,2.73-5.36,5.47-5.47h80.21ZM708.15,322.97c-3.3.6-2.76,4.9.55,4.93h55.35c3.55-.37,3.7-4.57,0-5.01l-55.9.08ZM707.52,337.04c-2.45.56-1.8,4.69.86,4.63h55.36c2.87.1,4.16-2.83,1.7-4.53l-57.92-.1ZM707.52,351.11c-2.45.56-1.8,4.69.86,4.63h33.78c2.69-.32,3.24-3.07,1.08-4.53l-35.73-.1ZM752.54,351.11c-2.2.51-2.07,4.19.58,4.61,1.87.3,9.66.29,11.53,0,2.58-.4,2.75-3.8.32-4.66-3.56.48-9.13-.7-12.43.06Z"/>
    <path class="st8" d="M733.24,369.49c5.24,1.36,10.2,3.18,14.39,6.72,18.93,16,11.28,45.85-12.72,51.4-.57.13-1.23-.3-1.04.66-10.52-.78-20.62-8.15-24.7-17.82-.93-2.21-1.98-5.76-2.19-8.13-1.45-16.66,9.58-30.87,26.26-32.83ZM738.56,407.01v-23.29c0-.09-1.09-1.17-1.26-1.24-1.17-.54-3.43.42-3.43,1.56v22.98c-2.28-1.35-5.55-6.9-8.26-6.56-2.32.29-2.27,2.61-1.13,4.22,1.28,1.81,7.66,8.04,9.53,9.54,1.47,1.19,2.23,1.7,3.93.47,1.61-1.16,8.94-8.53,10.15-10.17,1.73-2.33.08-4.78-2.44-4.01-.93.28-4.86,5.04-6.16,6.03-.32.24-.39.6-.94.47Z"/>
    <path class="st13" d="M763.57,410.45c.95-2.27,1.95-5.69,2.19-8.13l15.72-.07c2.29-.8,3.98-2.42,4.53-4.85l.07-90.44c2.14-.16,4.52.37,6.57-.31l-.14,98.5c-.69,2.9-2.75,4.81-5.72,5.22l-23.21.08Z"/>
    <path class="st4" d="M765.76,402.32c-.24,2.44-1.24,5.86-2.19,8.13-4.85,11.53-17.31,18.74-29.7,17.82-.19-.97.48-.53,1.04-.66,24-5.54,31.65-35.4,12.72-51.4-4.19-3.54-9.14-5.36-14.39-6.72,18.89-2.22,34.33,14.16,32.52,32.83Z"/>
    <path class="st13" d="M706.98,402.32c.21,2.37,1.26,5.92,2.19,8.13-8.15-.21-16.43.42-24.53-.33-2.68-.64-4.59-3.08-4.84-5.81-.09-.98.28-1.52.29-1.99h26.89Z"/>
    <path class="st1" d="M779.83,293.2c3.39,3.4,9.36,8.65,12.04,12.19.3.4.62.77.77,1.26-2.05.68-4.43.15-6.57.31l-.31-.31-18.13-25.33c4.17,3.79,8.22,7.89,12.19,11.88Z"/>
    <path class="st12" d="M767.64,281.32l18.13,25.33c-6.34-.11-12.76.21-19.06-.16l-.65-.6-.29-25.81c1.06-.02,1.33.75,1.88,1.25Z"/>
    <path class="st12" d="M708.15,322.97l55.9-.08c3.7.44,3.55,4.63,0,5.02h-55.35c-3.31-.04-3.86-4.34-.55-4.94Z"/>
    <path class="st12" d="M707.52,337.04l57.92.1c2.46,1.7,1.17,4.63-1.7,4.54h-55.36c-2.67.06-3.32-4.07-.86-4.63Z"/>
    <path class="st12" d="M707.52,351.11l35.73.1c2.16,1.46,1.61,4.22-1.08,4.53h-33.78c-2.67.06-3.32-4.07-.86-4.63Z"/>
    <path class="st12" d="M752.54,351.11c3.3-.76,8.87.42,12.43-.06,2.42.86,2.25,4.26-.32,4.66-1.87.29-9.66.3-11.53,0-2.65-.42-2.78-4.1-.58-4.61Z"/>
    <path class="st7" d="M738.56,407.01c.55.14.62-.23.94-.47,1.3-1,5.23-5.75,6.16-6.03,2.53-.77,4.17,1.68,2.44,4.01-1.22,1.64-8.55,9.01-10.15,10.17-1.7,1.22-2.46.71-3.93-.47-1.87-1.51-8.25-7.74-9.53-9.54-1.14-1.61-1.19-3.92,1.13-4.22,2.7-.34,5.97,5.21,8.26,6.56v-22.98c0-1.14,2.26-2.1,3.43-1.56.16.07,1.26,1.16,1.26,1.24v23.29Z"/>
  </g>
  <g>
    <path class="st5" d="M431.75,126.59c.9.72,1.79,1.35,1.78,2.65,0,10.8-.03,21.6,0,32.4,0,1.77,0,3.54,0,5.31.01,10.02,0,20.06,0,30.09,0,1.77,0,3.54,0,5.31,0,9.91,0,19.83,0,29.73,0,1.77,0,3.54,0,5.31,0,10.02-.01,20.06,0,30.09,0,1.77,0,3.54,0,5.31,0,9.91,0,19.83,0,29.74,5.89,0,11.81-.01,17.7,0,20.17.04,40.36,0,60.53,0,4.12,0,8.26,0,12.39,0,3.53,0,7.08,0,10.62,0,7.31,0,14.64,0,21.95,0,1.18,0,2.36,0,3.54,0,3.53,0,7.09,0,10.62,0,4.36,0,8.74-.01,13.1,0,2.35,0,4.72-.01,7.08,0,4.55.02,11.94-.64,16.08.02,1.2.19,1.62.9,2.32,1.75v1.77c-.79,1.05-1.53,1.9-2.99,1.79-58.43-.22-116.94.36-175.32-.29-1.36-.55-2.24-1.54-2.76-2.9l-.18-175.07c-.11-1.46.74-2.2,1.79-2.99h1.77Z"/>
    <path class="st14" d="M429.98,126.59c-1.05.79-1.9,1.53-1.79,2.99l.18,175.07c.52,1.36,1.4,2.35,2.76,2.9,58.37.64,116.89.07,175.32.29,1.46.11,2.2-.74,2.99-1.79v2.12h-181.59V126.59h2.12Z"/>
    <path class="st8" d="M517.41,286.95c-1.36,5.37-3.8,10.39-5.66,15.58-20.17,0-40.36.04-60.53,0,10.49-26.6,19.92-54.02,22.97-82.7.72-6.83.5-13.81,1.11-20.48s5.88-12.87,12.38-14.7c1.2,1.04,2.76,1.49,4.15,2.4,8.77,5.7,7.05,12.63,7.52,21.51,1.41,27.08,7.84,53.39,18.07,78.39Z"/>
    <path class="st11" d="M558.47,297.92c.04.22-.06.53,0,.71l-1.77,3.89c-7.31,0-14.64,0-21.95,0l-12.39-30.8c.03-.11-.03-.24,0-.35,2.79-10.39,5.11-20.91,6.01-31.68.69-8.19-1.43-17.4,7.79-21.41,3.35,2.41,6.28,5.39,6.72,9.74.53,5.28.17,11.15.72,16.63,1.84,18.41,7.6,36.41,14.86,53.28Z"/>
    <path class="st4" d="M522.37,271.37c-.03.11.03.24,0,.35-1.39,5.12-3.03,10.16-4.6,15.22h-.35c-10.22-25-16.65-51.32-18.07-78.39-.46-8.88,1.25-15.81-7.52-21.51-1.39-.91-2.95-1.35-4.15-2.4,7.42-2.09,15.84.94,19.89,7.54,3.78,6.16,2.48,18.98,3.12,26.62,1.51,17.94,6.05,35.57,11.68,52.57Z"/>
    <path class="st2" d="M563.08,282.7c-.05.21.05.5,0,.71-1.29,4.92-2.88,9.74-4.6,14.51-7.27-16.86-13.02-34.87-14.86-53.28-.55-5.48-.18-11.35-.72-16.63-.44-4.35-3.37-7.33-6.72-9.74,6.18-2.69,13.57-.03,16.35,6.13,1.74,3.86,1.02,11.47,1.35,15.99,1.05,14.45,4.62,28.64,9.2,42.3Z"/>
    <path class="st7" d="M570.51,253.67c5.23,2.39,3.56,8.38,3.9,12.92.93,12.51,5.12,24.36,9.55,35.93-4.36-.01-8.74,0-13.1,0l-7.79-19.11c.05-.2-.05-.5,0-.71,1.1-4.35,2.24-8.44,2.79-12.97.45-3.69.19-8.38.91-11.83.19-.92,1.12-2.52,1.78-3.18.85-.84,1.25-.66,1.96-1.05Z"/>
    <path class="st12" d="M591.04,302.52c-2.35-.01-4.72,0-7.08,0-4.43-11.58-8.63-23.42-9.55-35.93-.34-4.54,1.34-10.53-3.9-12.92.42-.23.42-.86,1.61-1.04,4.85-.75,8.86,1.96,9.35,6.89.68,6.81.46,12.27,1.95,19.29,1.73,8.17,4.87,15.87,7.61,23.71Z"/>
    <path class="st4" d="M564.94,152.69c-1.96-1.97.02-4.91,2.56-4.86,9.55.78,20.74-1.04,30.09,0,4.62.51,4.54,5.2.35,5.66-9.81-.67-20.8.9-30.46.02-.75-.07-2.02-.3-2.54-.83Z"/>
    <path class="st4" d="M564.94,162.44c.52-.52,1.79-.76,2.54-.83,9.78-.89,20.9.71,30.82.01,3.25.2,3.8,5.04.35,5.32h-32.24c-2.15-.23-2.96-3.02-1.48-4.51Z"/>
    <path class="st4" d="M566.16,175.52c5.14.41,11.95-.82,16.89-.05,2.99.46,2.98,4.81,0,5.27-2.62.41-13.98.41-16.6,0-2.93-.46-3.14-4.38-.3-5.21Z"/>
    <path class="st2" d="M433.52,166.95c0-1.77,0-3.54,0-5.31,2.93.62,11.51-1.83,11.71,2.66s-8.76,1.95-11.71,2.65Z"/>
    <path class="st2" d="M433.52,237.39c0-1.77,0-3.54,0-5.31,2.93.62,11.51-1.83,11.71,2.66s-8.76,1.95-11.71,2.65Z"/>
    <path class="st2" d="M433.52,202.34c0-1.77,0-3.54,0-5.31,2.89.37,7.01-.51,9.73,0,1.85.35,2.52,2.68,1.42,4.23-1.49,2.08-8.6.65-11.14,1.07Z"/>
    <path class="st2" d="M433.52,272.79c0-1.77,0-3.54,0-5.31,2.89.37,7.01-.51,9.73,0,1.85.35,2.52,2.68,1.42,4.23-1.49,2.08-8.6.65-11.14,1.07Z"/>
    <path class="st15" d="M534.76,302.52c-3.53,0-7.08,0-10.62,0-2.11-5.18-4.78-10.19-6.37-15.58,1.58-5.06,3.21-10.1,4.6-15.22l12.39,30.8Z"/>
    <path class="st4" d="M570.86,302.52c-3.53,0-7.09,0-10.62,0-.02-1.28-1.49-3-1.77-3.89-.06-.18.04-.49,0-.71,1.72-4.78,3.31-9.59,4.6-14.51l7.79,19.11Z"/>
    <path class="st0" d="M524.14,302.52c-4.12,0-8.26,0-12.39,0,1.87-5.19,4.31-10.2,5.66-15.58h.35c1.59,5.39,4.26,10.39,6.37,15.58Z"/>
    <path class="st8" d="M560.24,302.52c-1.18,0-2.36,0-3.54,0l1.77-3.89c.28.9,1.75,2.61,1.77,3.89Z"/>
  </g>
  <g>
    <path class="st6" d="M414.79,423.61c-.04,1.57.15,3.34,0,4.85-.2,1.99-1.03,3.94-1.17,6.14-.25,4.04.82,6.35,1.17,9.91.11,1.16.23,3.22-.38,4.11-6.02-3.19-15.58-2.93-21.68-.07-4.78,2.24-20.82,17.61-23.62,22.13-4.99,8.06-4.79,17.04.16,24.99,6.01,9.65,17.15,13.77,28.39,10.35,6.69-2.04,12.29-8.16,17.13-12.96l.02,23.73c.07,1.13-1.09,1.51-1.55,2.41-31.69.28-63.51.02-95.15-.28l-1.63-1.21v-94.1h98.31ZM329.76,438.62c-3.72,1.39-3.11,5.28.68,5.9,10.99-.94,24.1,1.22,34.83,0,4.21-.48,4.19-5.45,0-5.99l-35.5.09ZM329.38,450.57c-3.07.83-2.72,5.04.32,5.5h27.11c3.03-.47,3.34-5.05,0-5.56l-27.44.06ZM329.76,487.16c-3.5,1.03-3.15,5.34.32,5.87,6.8,1.05,16.21-.72,23.29,0,3.75-1.02,3.77-4.9,0-5.93l-23.61.06ZM329.76,498.37c-3.5,1.03-3.15,5.34.32,5.87,6.8,1.05,16.21-.72,23.29,0,3.75-1.02,3.77-4.9,0-5.93l-23.61.06Z"/>
    <path class="st1" d="M402.16,399.71c3.69.01,7.4-.03,11.09,0,.64,1,1.37,1.12,1.55,2.41.76,5.43.12,15.63-.02,21.49h-98.31v-22.03c.85-1.1,1.66-2,3.23-1.88,27.48.1,54.97-.08,82.45.02ZM332.44,409.52c-2.78-2.71-7.16,1.56-4.38,4.27s7.16-1.56,4.38-4.27ZM344.68,409.52c-2.78-2.71-7.16,1.56-4.38,4.27s7.16-1.56,4.38-4.27ZM356.92,409.52c-2.78-2.71-7.16,1.56-4.38,4.27s7.16-1.56,4.38-4.27Z"/>
    <path class="st6" d="M500.47,387.76c.08,23.27-.06,46.56,0,69.83-.53-.44-.98-.7-1.7-.76-8.61-.79-18.45.64-27.2,0-3.36.42-2.97,5.51.39,5.63,8.45-.64,18.12.83,26.41,0,.82-.08,1.41-.36,2.09-.76-.15,2.07-.15,5.03,0,7.09-.82-.53-1.49-.7-2.47-.77-11.38-.8-23.73.64-35.22.01-3.77.39-3.89,5.18,0,5.62,11.42-.7,23.93.9,35.22.01.98-.08,1.65-.23,2.47-.77-.21,2.5.44,6.15,0,8.39-.19.96-1.13,1.25-1.52,2.06-24.09.21-48.21-.16-72.3,0,.04-1.57-.15-3.33,0-4.85.59-6.13,2.33-9.89,0-16.43v-4.48c7.5,3.92,16.97,3.41,24.21-.82,4.09-2.39,17.96-15.86,20.63-19.82,7.41-11,4.52-25.5-6.59-32.76-16.05-10.49-27-1.76-38.25,9.33-.83-3.48,2.24-13.25-2.86-13.82-3.07-.35-7.29.04-10.53,0-3.69-.03-7.4.01-11.09,0v-11.95h98.31Z"/>
    <path class="st1" d="M498.94,363.86c.64,1,1.37,1.12,1.55,2.41.81,5.76-.04,15.27-.02,21.49h-98.31c0-7.14-.02-14.3.02-21.45.18-1.17,1.01-2.05,2.16-2.37,31.52.06,63.07-.36,94.59-.08ZM418.12,373.68c-2.78-2.71-7.16,1.56-4.38,4.27s7.16-1.56,4.38-4.27ZM430.36,373.68c-2.78-2.71-7.16,1.56-4.38,4.27s7.16-1.56,4.38-4.27ZM442.6,373.68c-2.78-2.71-7.16,1.56-4.38,4.27s7.16-1.56,4.38-4.27Z"/>
    <path class="st8" d="M512.33,387.76c.12,31.04-.07,62.1-.02,93.14-.16,1.11-1.03,2.12-2.16,2.37-2.56.56-8.23.05-11.2.08.39-.81,1.33-1.11,1.52-2.06.45-2.24-.2-5.89,0-8.39.04-.53.75-1.32.73-2.06-.02-.67-.67-1.27-.73-2.04-.15-2.07-.15-5.03,0-7.09.1-1.38,1.43-2.3,0-4.11-.06-23.27.08-46.56,0-69.83h11.86Z"/>
    <path class="st8" d="M426.65,483.35c-.27,11.32.35,22.68-.17,34-.21.5-.53.96-.99,1.28-1.48,1.04-9.78.55-12.23.57.46-.9,1.62-1.27,1.55-2.41l-.02-23.73c3.08-3.06,6.99-6.56,9.34-10.11.97-1.46,1.48-3.08,2.52-4.45-.15,1.52.04,3.28,0,4.85Z"/>
    <path class="st5" d="M512.33,387.76h-11.86c-.02-6.22.83-15.73.02-21.49-.18-1.29-.91-1.41-1.55-2.41,2.45.02,10.75-.47,12.23.57.98.69,1.07,1.51,1.17,2.59.59,6.28-.04,14.25-.02,20.74Z"/>
    <path class="st11" d="M414.4,448.62c.19.1.44.91,1.15.75-.07.07-.14.73-.55,1.13-1.43,1.38-7.3,7.62-8.63,7.83-3.35.52-5.18-.57-8.82,1.29-2.78,1.42-14.32,12.72-16.62,15.51-8.28,10.03.99,23.07,13.2,19.42-.05.03-.01.63-.61,1.07-.74.55-3.28,1.51-4.27,1.82-6.92,2.18-13.56,1.38-19.99-1.78-4.95-7.95-5.15-16.93-.16-24.99,2.8-4.52,18.84-19.88,23.62-22.13,6.1-2.86,15.66-3.13,21.68.07Z"/>
    <path class="st11" d="M464.9,404.19l1.81,6.64c1.09,6.02-.12,10.98-3.03,16.28-.29.52-.15,1.18-1.08.98,3.67-9.44-5.72-18.93-15.51-15.7-3.96,1.31-14.75,11.98-17.78,15.5s-4.26,7.19-3.05,11.77c-2.02,1.09-6.43,6.16-8.41,8.05-.41.4-1.08.46-1.16.53-.47-1.2-.89-2.97-1.91-3.73-.35-3.57-1.42-5.87-1.17-9.91.14-2.2.96-4.15,1.17-6.14,1.12-1.24,1.48-3.52,2.3-4.85,1.69-2.77,7-7.56,9.56-10.08,11.26-11.09,22.2-19.82,38.25-9.33Z"/>
    <path class="st2" d="M424.73,458.33c.39,1.14,1.55,2.72,1.91,3.73,2.33,6.54.59,10.3,0,16.43-1.04,1.36-1.55,2.98-2.52,4.45-2.34,3.56-6.26,7.06-9.34,10.11-4.84,4.8-10.45,10.93-17.13,12.96-11.24,3.42-22.38-.7-28.39-10.35,6.43,3.16,13.07,3.96,19.99,1.78.99-.31,3.53-1.27,4.27-1.82.59-.44.55-1.04.61-1.07.7-.46,1.78-.7,2.43-1.18,3.67-2.72,16.78-15,18.23-18.61.81.14,1.57-1.57,1.85-2.12,1.37-2.69,2.52-6.06,2.36-9.08,1.82-1.87,4-3.52,5.74-5.23Z"/>
    <path class="st12" d="M329.76,438.62l35.5-.09c4.19.54,4.21,5.51,0,5.99-10.73,1.22-23.84-.94-34.83,0-3.78-.63-4.4-4.52-.68-5.9Z"/>
    <path class="st12" d="M329.38,450.57l27.44-.06c3.33.5,3.03,5.09,0,5.56h-27.11c-3.04-.46-3.4-4.67-.32-5.5Z"/>
    <path class="st12" d="M329.76,487.16l23.61-.06c3.77,1.03,3.75,4.91,0,5.93-7.08-.72-16.49,1.05-23.29,0-3.48-.54-3.83-4.84-.32-5.87Z"/>
    <path class="st12" d="M329.76,498.37l23.61-.06c3.77,1.03,3.75,4.91,0,5.93-7.08-.72-16.49,1.05-23.29,0-3.48-.54-3.83-4.84-.32-5.87Z"/>
    <path class="st10" d="M416.7,448.25c-.32.31-.81.79-1.15,1.12-.71.16-.96-.65-1.15-.75.61-.89.49-2.95.38-4.11,1.02.77,1.45,2.54,1.91,3.73Z"/>
    <path class="st10" d="M417.08,423.61c-.81,1.34-1.17,3.61-2.3,4.85.15-1.51-.04-3.29,0-4.85h2.3Z"/>
    <path class="st5" d="M426.65,413.52c-2.56,2.52-7.88,7.31-9.56,10.08h-2.3c.14-5.86.78-16.06.02-21.49-.18-1.29-.91-1.41-1.55-2.41,3.24.03,7.46-.36,10.53,0,5.1.58,2.03,10.34,2.86,13.82Z"/>
    <path class="st2" d="M356.92,409.52c2.78,2.72-1.6,6.99-4.38,4.27s1.6-6.99,4.38-4.27Z"/>
    <path class="st2" d="M344.68,409.52c2.78,2.72-1.6,6.98-4.38,4.27s1.6-6.99,4.38-4.27Z"/>
    <path class="st2" d="M332.44,409.52c2.78,2.71-1.6,6.99-4.38,4.27s1.6-6.98,4.38-4.27Z"/>
    <path class="st2" d="M426.65,457.59c-.22-.11-.41-.4-.77-.37,1.7-1.68,3.6-3.8,5.36-5.6,3.3-.45,6.74-1.17,9.71-2.68.54-.28,1.21-.16,1-1.05,3.3-.94,14.74-12.25,17.41-15.3.89-1.01,2.8-3.34,3.25-4.49.93.2.79-.46,1.08-.98,2.91-5.29,4.11-10.26,3.03-16.28l-1.81-6.64c11.11,7.26,14,21.76,6.59,32.76-2.67,3.96-16.54,17.43-20.63,19.82-7.25,4.23-16.71,4.74-24.21.82Z"/>
    <path class="st12" d="M500.47,468.79c.06.77.71,1.37.73,2.04.02.75-.69,1.54-.73,2.06-.82.54-1.49.69-2.47.77-11.29.89-23.79-.71-35.22-.01-3.89-.44-3.77-5.23,0-5.62,11.49.63,23.84-.81,35.22-.01.98.07,1.65.24,2.47.77Z"/>
    <path class="st12" d="M500.47,457.59c1.43,1.81.1,2.73,0,4.11-.68.4-1.28.68-2.09.76-8.29.82-17.96-.64-26.41,0-3.37-.12-3.75-5.21-.39-5.63,8.75.64,18.59-.79,27.2,0,.72.07,1.18.32,1.7.76Z"/>
    <path class="st10" d="M425.88,457.21c.35-.03.55.26.77.37v4.48c-.36-1.02-1.53-2.59-1.91-3.73.33-.32.82-.8,1.15-1.12Z"/>
    <path class="st2" d="M418.12,373.68c2.78,2.72-1.6,6.99-4.38,4.27s1.6-6.99,4.38-4.27Z"/>
    <path class="st2" d="M442.6,373.68c2.78,2.72-1.6,6.99-4.38,4.27s1.6-6.99,4.38-4.27Z"/>
    <path class="st2" d="M430.36,373.68c2.78,2.72-1.6,6.99-4.38,4.27s1.6-6.99,4.38-4.27Z"/>
    <path class="st12" d="M406.37,458.33c.38,1.19-.45,2.2-.38,3.73.13,2.82,2.66,5.41,5.55,5.61,1.62.11,2.62-.72,4.01-.38-.43,2.63.42,4.51-.77,7.47-1.45,3.61-14.56,15.89-18.23,18.61-.65.48-1.72.72-2.43,1.18-12.21,3.65-21.48-9.39-13.2-19.42,2.31-2.8,13.85-14.09,16.62-15.51,3.64-1.86,5.47-.76,8.82-1.29Z"/>
    <path class="st0" d="M429.32,438.92c-.15,1.72-.64,3.12-1.71,4.49-1.56,1.99-18.11,17.98-19.39,18.41-.72.24-1.47.29-2.23.25-.07-1.53.76-2.55.38-3.73,1.33-.21,7.21-6.46,8.63-7.83.41-.4.48-1.06.55-1.13.34-.33.82-.81,1.15-1.12.07-.07.74-.14,1.16-.53,1.97-1.9,6.39-6.96,8.41-8.05.97-.52,1.95-.73,3.06-.75Z"/>
    <path class="st12" d="M462.6,428.09c-.44,1.14-2.36,3.47-3.25,4.49-2.67,3.05-14.11,14.36-17.41,15.3-2.07.59-5.17.53-7.27,0,2.31-4.13-.64-9.04-5.36-8.96-1.11.02-2.09.22-3.06.75-1.21-4.58.04-8.28,3.05-11.77s13.82-14.19,17.78-15.5c9.79-3.24,19.18,6.26,15.51,15.7Z"/>
    <path class="st15" d="M434.68,447.88c-.51.92-2.56,2.83-3.44,3.73-1.76,1.8-3.65,3.92-5.36,5.6-.33.32-.82.8-1.15,1.12-1.74,1.71-3.91,3.35-5.74,5.23-1,1.03-3.2,2.28-3.44,3.73-1.38-.33-2.39.49-4.01.38-2.89-.2-5.42-2.79-5.55-5.61.76.05,1.51,0,2.23-.25,1.28-.43,17.83-16.42,19.39-18.41,1.07-1.37,1.56-2.77,1.71-4.49,4.71-.08,7.67,4.83,5.36,8.96Z"/>
    <path class="st15" d="M418.99,463.56c.16,3.02-1,6.39-2.36,9.08-.28.55-1.03,2.26-1.85,2.12,1.18-2.96.33-4.84.77-7.47.24-1.45,2.44-2.7,3.44-3.73Z"/>
    <path class="st15" d="M441.95,447.88c.2.89-.46.78-1,1.05-2.97,1.51-6.41,2.23-9.71,2.68.88-.9,2.93-2.81,3.44-3.73,2.1.53,5.2.59,7.27,0Z"/>
  </g>
</svg>