<?xml version="1.0" encoding="UTF-8"?>
<svg xmlns="http://www.w3.org/2000/svg" version="1.1" viewBox="0 0 500 500">
  <defs>
    <style>
      .cls-1 {
        fill: #eee;
      }
    </style>
  </defs>
  <!-- Generator: Adobe Illustrator 28.6.0, SVG Export Plug-In . SVG Version: 1.2.0 Build 709)  -->
  <g>
    <g id="Capa_1">
      <g>
        <g>
          <g>
            <path class="cls-1" d="M430.2,40.5h-146.8V5h-13.3v199.4h13.3v-79.8h44.3v48.8h13.3v-48.8h117.5v168.4h13.3V82c0-22.9-18.6-41.5-41.5-41.5h0ZM327.7,111.4h-44.3v-57.6h44.3v57.6ZM458.4,111.4h-117.5v-57.6h89.2c15.6,0,28.2,12.7,28.2,28.2v29.4h0Z"/>
            <path class="cls-1" d="M216.9,439.4v-48.8h44.3v-13.3h-44.3v-48.8h44.3v-13.3h-44.3v-35.5h-13.3v35.5h-110.8v-35.5h-13.3v35.5H19.6v-35.5H6.4v131.3c0,22.9,18.6,41.5,41.5,41.5h235.5v-13.3h-66.5ZM79.5,439.4h-31.6c-15.6,0-28.2-12.7-28.2-28.2v-20.5h59.8v48.8ZM79.5,377.3H19.6v-48.8h59.8s0,48.8,0,48.8ZM203.6,439.4h-110.8v-48.8h110.8v48.8ZM203.6,377.3h-110.8v-48.8h110.8v48.8Z"/>
          </g>
          <path class="cls-1" d="M492.4,360.3l-100.5,129.5-2.6,3.3c-1.1,1.4-2.5,2.1-4,2.3-1.5-.2-2.9-.9-4-2.3l-2.6-3.3-100.5-129.5c-3.6-4.7,1.1-11.3,6.7-9.3l64.9,22.6v-182.4h70.9v182.4l64.9-22.6c5.6-2,10.3,4.6,6.7,9.3h0Z"/>
        </g>
        <g>
          <path class="cls-1" d="M167.9,129.2c3.5-1.4,6.7-2.9,10.1-4.1.9-.3,2.1-.2,3.1.2,8.4,3.1,17.1,4.5,26.1,4,3.2-.2,6.4-.7,9.7-1v80H33v-113.9h112.6c1.6,2.4,3.1,5,4.8,7.5,1,1.5,2.1,3.1,3.4,4.3,2.4,2.1,2.6,4.4.9,7.2-12.6-9.3-26.6-12.6-42-8.7-10.9,2.8-19.8,8.9-26.5,17.9-13.7,18.5-12.4,44,3,61,15.4,17,40.6,20.7,60.3,9,18.2-10.8,30.8-36.3,18.3-63.4h0Z"/>
          <path class="cls-1" d="M225.9,125.8c3-1.3,5.7-2.5,8.6-3.7v104.1h-3.1c-18.8,0-37.7,0-56.5,0-2.5,0-4.4.7-6.1,2.5-3,3.2-6.2,6.2-9.3,9.4-1,1-1.9,1.4-3.4,1.4-20.9,0-41.9,0-62.8,0-1.3,0-2.2-.4-3.1-1.3-3.1-3.2-6.4-6.3-9.5-9.6-1.6-1.7-3.5-2.4-5.8-2.4-18.8,0-37.7,0-56.5,0h-3.1c0-.8-.2-1.5-.2-2.2,0-44.5,0-89,0-133.5,0-8.1,5.6-13.7,13.6-13.7,36.1,0,72.2,0,108.3,0,.7,0,1.4,0,2.2.1.8,2.9,1.6,5.7,2.4,8.7H30.8c-.9,0-1.8,0-2.7,0-2.3.2-3.8,1.8-4.1,4.1,0,.7,0,1.5,0,2.2v119.2c0,.7,0,1.5,0,2.2.2,2.3,1.8,3.8,4.1,4.1.8,0,1.6,0,2.5,0h188.6c.8,0,1.6,0,2.5,0,2.3-.2,3.8-1.8,4.1-4.1,0-.9,0-1.8,0-2.8v-84.8h0Z"/>
          <path class="cls-1" d="M259.5,50.7c-8.1-34.1-43.4-52.8-76.2-40.4-26.4,10-41.5,38.8-34.9,66.3,2.5,10.3,7.3,19.3,14.7,26.8,2,2,2.9,4.1,1.9,6.9-.5,1.4-.8,2.8-1.1,4.2-.6,2.4-1.1,4.7-1.8,7.4.9-.3,1.4-.4,1.9-.6,4-1.6,8-3.2,11.9-4.9,2.2-1,4.3-1,6.6,0,10.3,4.2,20.9,5.3,31.9,3.3,31.6-5.6,52.6-37.6,45.1-69h0ZM227.1,105c-1.6,1.3-4,1.3-5.6,0-1.6-1.3-2.1-3.5-1.1-5.4,0-.2.2-.3.3-.5.5-.8.4-1.1-.3-1.6-2.3-1.5-4.6-2.9-6.8-4.3-1.8-1.1-3.6-2.3-5.4-3.4-.2-.2-.5-.3-.8-.5,0,.3,0,.5,0,.8v8c0,.4.1.8.3,1.1,1.1,1.7,1,3.6-.2,5.1-1.1,1.4-3.1,2-4.8,1.5-1.8-.6-3.1-2.2-3.1-4.1,0-.9.3-1.8.8-2.6.2-.3.3-.6.3-.9,0-2.8,0-5.6,0-8.4,0-.1,0-.2,0-.5-4.6,2.9-9.1,5.8-13.6,8.7,0,.5,0,.9.2,1.3,1.7,2.3.7,5.8-2.3,6.8-.1,0-.3.1-.4.2h-1.7c-.3-.1-.5-.2-.8-.3-2.5-1.1-3.5-4.1-2.1-6.4.3-.4.4-.9.4-1.4,0-.5,0-.9,0-1.4,0-1.6.6-2.6,1.9-3.4,2.7-1.7,5.3-3.4,7.9-5,3.9-2.4,7.7-4.9,11.5-7.3,1.6-1,3-1,4.6,0,6.4,4.1,12.8,8.2,19.1,12.2.2.2.5.3.7.5.9.6,1.4,1.5,1.4,2.6v.8c0,1,0,1.9.6,2.9,1.1,1.8.4,4-1.2,5.3h0ZM229.9,77.3c-.6,1-1.4,1.5-2.6,1.6-.3,0-.6,0-.9,0h-45c-.5,0-.9,0-1.4,0-1.5-.3-2.4-1.6-2.4-3.2,0-4.1,0-8.2,0-12.3s0-4.7,0-7.1c0-1.3.7-2.3,2-2.8,1.2-.5,2.4-.3,3.4.6.8.7,1.1,1.6,1,2.7v10.3c0,0,.1,0,.2,0,.2-1.1.4-2.2.5-3.3.8-5.5,1.2-11.1,1.2-16.8,0-7.7-.8-15.3-2.4-22.8,0-.3-.1-.6-.1-.9-.1-1.4.4-2.3,1.7-2.8,2.3-.8,4.7-1.6,7-2.2,4.1-1.1,8.3-1.5,12.6-1.5,6.2.1,12.2,1.4,18,3.6,1.6.6,2.1,1.8,1.8,3.5-.4,1.9-.8,3.7-1.1,5.6-1.1,6.9-1.6,13.9-1.4,20.8.2,5.1.6,10.3,1.5,15.3,0,.4.1.8.2,1.3,0,0,.1,0,.2,0v-10.2c0-.4,0-.8,0-1.1.3-1.6,1.6-2.7,3.3-2.6,1.6,0,2.8,1.3,3,2.9,0,.2,0,.4,0,.6v18.9c0,.7-.1,1.3-.4,1.8h0Z"/>
          <path class="cls-1" d="M243.3,235.1c-.6,0-1,0-1.5,0-21.7,0-43.3,0-65,0-1.3,0-2.2.4-3.1,1.3-3.1,3.2-6.4,6.3-9.5,9.6-1.6,1.6-3.3,2.4-5.6,2.4-22.5,0-45,0-67.4,0-2.3,0-4-.7-5.6-2.4-2.9-3-6-5.9-8.9-9-1.3-1.4-2.6-1.9-4.5-1.9-20.9,0-41.9,0-62.8,0h-3c0,5-.1,9.6,0,14.1.2,5.4,4.1,10.3,9.3,11.6,1.8.5,3.8.6,5.7.6,68.9,0,137.8,0,206.7,0s1.5,0,2.2,0c6.4-.2,12-4.8,12.6-11.2.5-4.9.1-10,.1-15.1h0ZM216.9,252.4h-8.4v-8.4h8.4v8.4h0ZM234.5,252.3h-8.5v-8.4h8.5v8.4Z"/>
          <path class="cls-1" d="M164.4,149.2c-.3-5.8-1.8-11.3-4.8-16.5-.8.3-1.5.5-2.2.7-3.8,1.2-6.8-1.4-6-5.4.2-.9.4-1.8.7-2.6.5-1.5.1-2.6-1.1-3.6-9.2-7.9-19.8-11.3-31.7-9.7-20.7,2.8-35,20-34.5,40.8.5,20.8,17.7,38.1,38.4,38.6,23.5.6,42.4-18.7,41.1-42.3h0ZM129.1,177.7h-8.4v-8.4h8.4v8.4ZM129.2,160h-8.4v-34.8h8.4v34.8Z"/>
        </g>
      </g>
    </g>
  </g>
</svg>