<?xml version="1.0" encoding="UTF-8"?>
<svg xmlns="http://www.w3.org/2000/svg" version="1.1" viewBox="0 0 500 500">
  <defs>
    <style>
      .cls-1 {
        fill: #eee;
      }
    </style>
  </defs>
  <!-- Generator: Adobe Illustrator 28.6.0, SVG Export Plug-In . SVG Version: 1.2.0 Build 709)  -->
  <g>
    <g id="Capa_1">
      <g>
        <g>
          <g>
            <path class="cls-1" d="M429.4,42.2h-146.2V6.9h-13.2v198.6h13.2v-79.4h44.1v48.5h13.2v-48.6h116.9v167.7h13.2V83.6c0-22.8-18.5-41.3-41.4-41.3ZM327.3,112.8h-44.1v-57.4h44.1v57.4ZM457.5,112.8h-116.9v-57.4h88.8c15.5,0,28.1,12.6,28.1,28.1v29.3h0Z"/>
            <path class="cls-1" d="M217,439.4v-48.5h44.1v-13.2h-44.1v-48.5h44.1v-13.2h-44.1v-35.3h-13.2v35.3h-110.3v-35.3h-13.2v35.3H20.6v-35.3H7.4v130.8c0,22.8,18.5,41.4,41.3,41.4h234.5v-13.2h-66.2ZM80.2,439.4h-31.5c-15.5,0-28.1-12.6-28.1-28.1v-20.4h59.6v48.5ZM80.2,377.6H20.6v-48.5h59.6s0,48.5,0,48.5ZM203.8,439.4h-110.3v-48.5h110.3v48.5ZM203.8,377.6h-110.3v-48.5h110.3v48.5Z"/>
          </g>
          <path class="cls-1" d="M491.3,360.6l-100,128.9-2.6,3.3c-1.1,1.4-2.5,2.1-4,2.3-1.5-.2-2.9-.9-4-2.3l-2.6-3.3-100-128.9c-3.6-4.7,1.1-11.2,6.7-9.3l64.6,22.5v-181.6h70.6v181.6l64.6-22.5c5.6-1.9,10.3,4.6,6.7,9.3h0Z"/>
        </g>
        <g>
          <path class="cls-1" d="M7.5,257.3V4.8h133.1v58.9c.4.2.5.2.6.2,19.1,0,38.1,0,57.2,0,.2,0,.5,0,.7,0,0,0,.2,0,.2,0s.1,0,.2.1c0,0,.1.1.2.2.4,7.7.2,28.9-.3,30.7-.6,0-1.3,0-1.9-.2-4.4-.6-8.9-.4-13.2.5-12.7,2.5-22.4,9.4-29.4,20.2-5.6,8.7-7.7,18.2-6.4,28.5.7,5.4,2.4,10.6,4.3,15.6,2.4,6.3,4.8,12.6,6.4,19.1,1.6,6.3,2.6,12.7,3.1,19.4h-51.2v59.2H7.5ZM81.5,205.5c0-12.1-10-22.1-22.2-22.1-12.2,0-22.2,10-22.2,22.3,0,12.1,10,22.1,22.2,22.1,12.2,0,22.3-10,22.2-22.3h0ZM37.2,138.8h88.7v-5.1c0-1.6,0-3.1,0-4.7,0-1.6.3-3.2-.2-4.7H37.2v14.5h0ZM37.2,109.3h59v-14.5c-5.8-.5-57.1-.3-59,.2v14.3Z"/>
          <path class="cls-1" d="M126,257.2v-44.1h133.7c.5,1.7.7,37.7.2,44.1H126Z"/>
          <path class="cls-1" d="M207.7,198.1h-30.4c-.3-2.7-.6-5.2-.9-7.8-1.3-11.1-4.3-21.7-8.3-32.1-1.6-4.2-3.2-8.5-4.3-12.8-4.3-16.5,7.7-32.9,23.9-35.5,16.6-2.7,30.6,8.7,33.7,22.5,1.4,6.2.6,12.2-1.5,18.1-2.1,5.8-4.3,11.5-6.3,17.4-2.8,8.4-4.5,17.1-5.3,26-.1,1.4-.3,2.8-.5,4.3h0Z"/>
          <path class="cls-1" d="M194.5,49.1h-38.9V10.2c12.9,12.9,26,26,38.9,38.9Z"/>
          <path class="cls-1" d="M66.7,205.6c0,4-3.4,7.3-7.4,7.3-4.1,0-7.5-3.5-7.4-7.6,0-4,3.5-7.3,7.5-7.2,4,0,7.3,3.5,7.2,7.5h0Z"/>
        </g>
      </g>
    </g>
  </g>
</svg>