<?xml version="1.0" encoding="UTF-8"?>
<svg xmlns="http://www.w3.org/2000/svg" version="1.1" viewBox="0 0 500 500">
  <defs>
    <style>
      .cls-1 {
        fill: #eee;
      }
    </style>
  </defs>
  <!-- Generator: Adobe Illustrator 28.6.0, SVG Export Plug-In . SVG Version: 1.2.0 Build 709)  -->
  <g>
    <g id="Capa_1">
      <g>
        <g>
          <g>
            <path class="cls-1" d="M431.4,40.3h-146.8V4.8h-13.3v199.4h13.3v-79.8h44.3v48.8h13.3v-48.8h117.5v168.4h13.3V81.8c0-22.9-18.6-41.5-41.5-41.5ZM328.9,111.2h-44.3v-57.6h44.3v57.6ZM459.6,111.2h-117.5v-57.6h89.2c15.6,0,28.2,12.7,28.2,28.2v29.4h0Z"/>
            <path class="cls-1" d="M218.1,439.2v-48.8h44.3v-13.3h-44.3v-48.8h44.3v-13.3h-44.3v-35.5h-13.3v35.5h-110.8v-35.5h-13.3v35.5H20.9v-35.5H7.6v131.3c0,22.9,18.6,41.5,41.5,41.5h235.5v-13.3h-66.5,0ZM80.7,439.2h-31.6c-15.6,0-28.2-12.7-28.2-28.2v-20.5h59.8v48.8ZM80.7,377.1H20.9v-48.8h59.8v48.8ZM204.8,439.2h-110.8v-48.8h110.8v48.8ZM204.8,377.1h-110.8v-48.8h110.8v48.8Z"/>
          </g>
          <path class="cls-1" d="M493.6,360.1l-100.5,129.5-2.6,3.3c-1.1,1.4-2.5,2.1-4,2.3-1.5-.2-2.9-.9-4-2.3l-2.6-3.3-100.5-129.5c-3.6-4.7,1.1-11.3,6.7-9.3l64.9,22.6v-182.4h70.9v182.4l64.9-22.6c5.6-2,10.3,4.6,6.7,9.3h0Z"/>
        </g>
        <g>
          <path class="cls-1" d="M146.5,137.5c1,4.9,1.9,9.6,2.9,14.6-1,0-2.1,0-3.1,0-27.4,0-54.9,0-82.3,0-1.1,0-2.2,0-3.2.2-2,.4-3.1,1.9-3,3.8s1.4,3.3,3.4,3.5c.9,0,1.8,0,2.7,0h85.5c.8,0,1.6-.1,2.4,0,.5.1,1.2.4,1.5.8,2.9,4.6,5.7,9.2,8.6,14H63.6c-.8,0-1.6,0-2.4,0-2.1.2-3.5,1.7-3.5,3.6,0,2,1.3,3.5,3.4,3.8.9.1,1.8,0,2.7,0,34.3,0,68.6,0,102.9,0,1.8,0,3.2.5,4.5,1.7,10.4,9.6,22.1,16.8,35.9,20.5.3,0,.7.2,1.2.4,0,.7.1,1.5.1,2.3,0,4.6,0,9.3,0,13.9,0,4.9-3.3,8.1-8.3,8.2h-1.1c-52.6,0-105.3,0-157.9,0-1.3,0-2.7,0-4-.5-3-.9-4.8-3-5.3-6.1-.2-1.1-.2-2.3-.2-3.5,0-67.9,0-135.8,0-203.7,0-1.2,0-2.5.3-3.7.6-3.3,3.2-5.8,6.6-6.1,1.1-.1,2.1-.1,3.2-.1h122.8v3.1c0,8.4,0,16.8,0,25.2,0,6.3,3,11.1,8.7,14,2.4,1.2,4.9,1.5,7.5,1.5,7.4,0,14.8,0,22.2,0h5.2v15.2c-.7,0-1.3.2-2,.2-4.6,0-9.3,0-13.9,0-1.4,0-2.6.4-3.7,1.2-6.8,4.9-14,8.9-22.1,11.3-2.6.8-5.3,1.5-8.1,1.9-3.7.7-6.8,2.1-9.1,5.2-.7.9-1.4,1.2-2.5,1.2-.6,0-1.2,0-1.9,0H63.8c-1,0-2,0-2.9,0-1.8.2-2.9,1.5-3.1,3.2-.2,1.8.8,3.4,2.5,3.9,1.1.3,2.3.3,3.4.3,26.5,0,53.1,0,79.6,0h3.3v14.6c-1,0-2.1,0-3.1,0H63.9c-.9,0-1.8,0-2.7,0-2.2.3-3.6,1.9-3.5,4,.1,2,1.5,3.3,3.7,3.4.8,0,1.6,0,2.4,0h82.6c.5,2.5.2,4.9.2,7.3,0,2.4,0,4.8,0,7.5-1.1,0-2.2,0-3.2,0H63.6c-.9,0-1.8,0-2.7,0-1.9.2-3.1,1.6-3.2,3.3-.1,1.8.8,3.4,2.7,3.8,1,.3,2.1.3,3.2.3,26.6,0,53.3,0,79.9,0h3.1,0ZM115.9,63h-52.5c-.8,0-1.6,0-2.4,0-1.8.2-3.1,1.6-3.2,3.4-.1,1.9,1,3.5,2.9,3.9.7.2,1.4.1,2.1.1h105.9c.6,0,1.3,0,1.9,0,2.1-.3,3.3-1.9,3.2-3.9-.1-1.9-1.4-3.3-3.4-3.5-.8,0-1.6,0-2.4,0h-52,0ZM115.9,196.9h-52.3c-.9,0-1.8,0-2.7,0-1.9.2-3.1,1.5-3.3,3.3-.2,1.8.8,3.3,2.6,3.8.8.2,1.8.3,2.6.3,35.2,0,70.4,0,105.6,0,.8,0,1.6,0,2.4-.2,1.9-.5,3-2.1,2.8-4-.2-1.8-1.5-3-3.4-3.2-.8,0-1.6,0-2.4,0h-52ZM93.2,48.1h30.3c.8,0,1.6,0,2.4,0,1.9-.2,3.1-1.5,3.3-3.3.1-1.9-.8-3.3-2.6-3.9-.8-.2-1.6-.3-2.4-.3-20.4,0-40.9,0-61.3,0-.9,0-1.8,0-2.6.3-1.8.5-2.7,2.1-2.5,3.9.2,1.7,1.4,2.9,3.1,3.2.8.1,1.6,0,2.4,0h30,0Z"/>
          <path class="cls-1" d="M24.1,31.9v186.5c0,1.6,0,3.2.2,4.8.8,7.4,6.9,13.1,14.4,13.5,1.1,0,2.1,0,3.2,0h140v5.2c0,1.9,0,3.8,0,5.6-.2,5.5-4.2,8.4-8.4,8.1-.6,0-1.2,0-1.9,0H15.3c-1,0-2,0-2.9,0-3.9-.3-6.8-3.2-7.2-7.1,0-.9,0-1.8,0-2.7V41.6c0-.7,0-1.4,0-2.1.3-3.9,3-6.9,6.9-7.4.8-.1,1.6,0,2.4,0h9.7Z"/>
          <path class="cls-1" d="M262.5,114.8c0,5.6-.1,11.3,0,16.9.4,13-3.8,24.4-11.4,34.7-10.4,14-23.8,24-40.3,29.8-1.7.6-3.2.6-4.9,0-10.9-3.6-20.5-9.6-29-17.3-7.6-6.8-13.8-14.7-18.1-24-3-6.7-4.6-13.7-4.6-21,0-13.5,0-27,0-40.5,0-1,0-2,.3-2.9.6-2.2,2.2-3.5,4.4-3.8,11.9-1.9,22.5-6.8,32.3-13.5,1-.7,2-1,3.2-1,9.3,0,18.6,0,27.9,0,1.4,0,2.6.5,3.7,1.3,8.4,5.8,17.5,10.1,27.4,12.3,1.2.3,2.4.5,3.7.8,4,.8,5.4,2.4,5.4,6.6,0,7.2,0,14.5,0,21.7h0ZM250.7,118.9c0-5.8,0-11.6,0-17.4,0-3.3-.7-4.3-3.9-5.2-8.6-2.4-16.6-6.1-24.1-10.8-1.7-1.1-3.3-1.5-5.3-1.5-5.8,0-11.6.1-17.4,0-2.5,0-4.7.5-6.8,1.9-7.2,4.6-14.9,8-23.1,10.4-3.6,1-4.1,1.8-4.1,5.5,0,10.4,0,20.7,0,31.1,0,7.6,1.8,14.7,5.7,21.2,8.1,13.8,19.9,23.4,34.5,29.7,1.6.7,3.1.6,4.6,0,13.6-5.8,24.6-14.7,32.8-27.1,4.8-7.3,7.5-15.3,7.2-24.2-.1-4.5,0-8.9,0-13.4h0Z"/>
          <path class="cls-1" d="M172,6.3c2.9,1.7,34.2,33.1,35.2,35.3-.6,0-1.2.2-1.9.2-8.3,0-16.6,0-24.9,0-2,0-3.9-.4-5.5-1.7-1.8-1.5-2.9-3.4-3-5.8,0-9.3,0-18.5,0-28.1h0Z"/>
          <path class="cls-1" d="M173.5,103.4c4.7-1.9,9.2-3.6,13.6-5.6,3.2-1.5,6.3-3.3,9.4-5.1,1.3-.7,2.5-1.2,4-1.2,5.3,0,10.5,0,15.8,0,1.1,0,2.3.3,3.3.8,7.1,4.3,14.6,7.8,22.6,10.3.2,0,.5.2,1.1.5v2.7c0,8.8-.1,17.5,0,26.2.2,7.4-1.9,14.1-5.9,20.2-6.8,10.4-15.9,18-27,23.3-1.1.5-2.1.9-3.3.3-12.9-6.2-23.4-15-30-27.9-2.4-4.7-3.5-9.7-3.5-14.9,0-9.1,0-18.2,0-27.3v-2.4h0ZM204.4,112.3c-.9.4-1.8.7-2.6,1.2-4.6,2.4-7.5,6.1-7.5,11.5s2.8,9.3,7.6,11.6c2,.9,4.3,1.2,6.4,1.5,1.6.2,3.2.5,4.5,1.5,3,2.3,2.8,6.2-.3,8.4-2.7,1.8-6.1,1.7-8.8-.3-.9-.6-1.6-1.4-2.5-1.9-1.5-.9-3.2-.5-4.4.8-1,1.1-1.3,2.9-.5,4.2.4.7.9,1.4,1.6,1.8,2.1,1.5,4.3,2.8,6.6,4.3.5,3.8,1.7,5.4,4.1,5.3,2.3,0,3.2-1.5,3.8-5.8,1.1-.5,2.3-1,3.3-1.6,8.9-5,9-16.9.2-22.1-2.2-1.3-4.6-2-7.1-2-1.8,0-3.6-.4-5-1.6-2.8-2.2-2.8-5.9,0-8,1.9-1.4,4-2,6.3-1.3,1.9.6,3.6,1.4,5,2.9,1.4,1.4,3.4,1.4,4.9.2,1.5-1.2,1.8-3.4.6-5.1-1.4-2.1-3.5-3.3-5.7-4.3-.9-.4-1.8-.7-2.6-1.1-.5-4.7-1.6-6.3-4.1-6.2-2.4,0-3.3,1.5-3.7,6.1h0Z"/>
        </g>
      </g>
    </g>
  </g>
</svg>