<?xml version="1.0" encoding="UTF-8"?>
<svg xmlns="http://www.w3.org/2000/svg" version="1.1" viewBox="0 0 500 500">
  <defs>
    <style>
      .cls-1 {
        fill: #eee;
      }
    </style>
  </defs>
  <!-- Generator: Adobe Illustrator 28.6.0, SVG Export Plug-In . SVG Version: 1.2.0 Build 709)  -->
  <g>
    <g id="Capa_1">
      <g>
        <g>
          <path class="cls-1" d="M434.9,48.1h-141.8V13.8h-12.8v192.5h12.8v-77h42.8v47.1h12.8v-47.1h113.4v162.6h12.8V88.2c0-22.1-18-40.1-40.1-40.1h0ZM335.9,116.5h-42.8v-55.6h42.8v55.6ZM462.1,116.5h-113.4v-55.6h86.1c15,0,27.3,12.2,27.3,27.3v28.4h0Z"/>
          <path class="cls-1" d="M228.9,433.2v-47.1h42.8v-12.8h-42.8v-47.1h42.8v-12.8h-42.8v-34.2h-12.8v34.2h-107v-34.2h-12.8v34.2h-57.8v-34.2h-12.8v126.8c0,22.1,18,40.1,40.1,40.1h227.3v-12.8h-64.2ZM96.3,433.2h-30.5c-15,0-27.3-12.2-27.3-27.2v-19.8h57.8v47.1h0ZM96.3,373.3h-57.8v-47.1h57.8v47.1ZM216.1,433.2h-107v-47.1h107v47.1ZM216.1,373.3h-107v-47.1h107v47.1Z"/>
        </g>
        <path class="cls-1" d="M494.9,356.8l-97,125-2.5,3.2c-1.1,1.3-2.4,2-3.9,2.2-1.5-.2-2.8-.9-3.9-2.2l-2.5-3.2-97-125c-3.5-4.5,1-10.9,6.5-9l62.7,21.8v-176.1h68.5v176.1l62.7-21.8c5.4-1.9,10,4.5,6.5,9h0Z"/>
      </g>
      <path class="cls-1" d="M261,24.8c-.3-5.6-4-10.1-9.4-11.4-1.8-.5-3.4-.5-5.3-.5h-37.3c-5.9,15.8-12,31.7-18,47.7h41c-11.9,23.6-23.6,46.9-35.4,70.1,0,0-.2,0-.4-.1,1.6-15,3.1-29.9,4.7-45.1h-52.1c2.7-24.4,5.5-48.4,8.2-72.6H16.1c-6.4.3-12,5.3-12.2,12v168.9c.2,5.3,4,9.8,9.1,11.4,1.6.5,3.4.5,5,.5h88.6v26.1c-5.3,2.4-10.6,5.3-15.7,7.9-2.6,1.4-5.5,2.7-8.5,4-.8.5-1.3.8-1.3,1.9v11.4h102.9v-9.8c.2-2.2-.5-3.2-2.4-4-7-3.1-13.6-6.7-20.5-10.3-1.1-.3-1.9-.8-2.6-1.4v-25.8h90.3c5.6-.2,10.9-4.2,12-9.8.5-1.9.5-3.7.5-5.3V28.2c0-1,0-2.1-.2-3.4h0ZM235.5,179.8H29.6v-25.3h205.9v25.3h0Z"/>
    </g>
  </g>
</svg>