<?xml version="1.0" encoding="UTF-8"?>
<svg xmlns="http://www.w3.org/2000/svg" version="1.1" viewBox="0 0 500 500">
  <defs>
    <style>
      .cls-1 {
        fill: #eee;
      }
    </style>
  </defs>
  <!-- Generator: Adobe Illustrator 28.6.0, SVG Export Plug-In . SVG Version: 1.2.0 Build 709)  -->
  <g>
    <g id="Capa_1">
      <g>
        <g>
          <path class="cls-1" d="M433.8,46.1h-142.8V11.6h-12.9v193.9h12.9v-77.6h43.1v47.4h12.9v-47.4h114.2v163.8h12.9V86.5c0-22.3-18.1-40.4-40.4-40.4h0ZM334.1,115h-43.1v-56h43.1v56ZM461.2,115h-114.2v-56h86.8c15.1,0,27.5,12.3,27.5,27.5v28.6Z"/>
          <path class="cls-1" d="M226.3,434v-47.4h43.1v-12.9h-43.1v-47.4h43.1v-12.9h-43.1v-34.5h-12.9v34.5h-107.8v-34.5h-12.9v34.5h-58.2v-34.5h-12.9v127.7c0,22.2,18.1,40.4,40.4,40.4h229v-12.9h-64.6,0ZM92.7,434h-30.7c-15.1,0-27.5-12.3-27.5-27.5v-20h58.2v47.4ZM92.7,373.6h-58.2v-47.4h58.2v47.4ZM213.4,434h-107.8v-47.4h107.8v47.4ZM213.4,373.6h-107.8v-47.4h107.8v47.4Z"/>
        </g>
        <path class="cls-1" d="M494.2,357l-97.7,125.9-2.5,3.2c-1.1,1.3-2.5,2.1-3.9,2.2-1.5-.2-2.8-.9-3.9-2.2l-2.5-3.2-97.7-125.9c-3.5-4.6,1-11,6.5-9l63.1,22v-177.4h69v177.4l63.1-22c5.5-1.9,10,4.5,6.5,9h0Z"/>
      </g>
      <g>
        <path class="cls-1" d="M246.3,82.3c-3-11.8-13.6-20.8-25.8-21.4-8.1-.4-16.2-.2-24.4-.2-3.9,0-2.9.5-5.1-2.7-3.8-5.6-7.5-11.3-11.2-17-6.1-9.4-14.9-14-26.1-14-18.7,0-37.2,0-55.9,0-8.7,0-16.1,2.9-22.1,9.2-1.4,1.4-2.7,3.1-3.8,4.9-4,5.9-8,11.9-11.9,18-.8,1.3-1.7,1.8-3.2,1.8-7,0-13.9,0-20.9,0s-8.4.2-12.4,1.8c-10.5,4.1-16.8,11.6-18.7,22.8-.3,1.7-.4,3.5-.4,5.2v100.9c0,11.3,4.8,19.9,14.4,25.8,4.2,2.5,8.7,3.7,13.5,3.9.9,0,1.7,0,2.7,0h181.8c6.8,0,13-1.6,18.4-5.6,6.4-4.8,10.3-11,11.5-18.9,0-.4.3-.7.5-1.1v-109.6c-.4-1.3-.7-2.5-1-3.8h0ZM126.1,197.3c-36.6.1-65.3-29.1-65.6-65.2.2-35.7,28.4-65.1,65.3-65.2,36.3,0,65.4,29,65.5,65.2,0,35.4-28.2,65.2-65.2,65.2h0ZM215.4,101.4c-2.2.3-4.4,0-6.6,0v.2c-1.7,0-3.5,0-5.2,0-4.5-.2-7.7-2.9-8.6-7.1-1-4.6,2.4-9.4,7.1-9.9,2.1-.2,4.4-.2,6.6-.2s3.8,0,5.7,0c4.5.2,7.9,3.6,8.1,8.3.2,4.2-2.7,8-7.1,8.6h0Z"/>
        <path class="cls-1" d="M125.9,77.3c-30.3,0-54.8,24.5-54.8,54.8s24.5,54.8,54.8,54.8,54.8-24.5,54.8-54.8-24.5-54.8-54.8-54.8ZM146.2,170.5c-1.4,1.2-3.5,1.2-4.9,0-1.4-1.1-1.8-3.1-1-4.7,0-.2.2-.3.3-.5,0,0,0-.1,0-.2.3-.5.2-.8-.4-1.1-2-1.3-4-2.7-6-3.9-1.6-1-3.2-2.1-4.8-3-.1-.1-.5-.3-.7-.5,0,.4,0,.5,0,.7v7.1c0,.4,0,.7.3,1,.6.8.8,1.8.5,2.7,0,.7-.3,1.2-.8,1.7-.9,1.2-2.7,1.8-4.2,1.3-1.4-.4-2.5-1.6-2.7-3,0-.1,0-.4,0-.5,0-.8.3-1.5.7-2.3.2-.2.4-.5.4-.8v-7.4c0,0,0-.2,0-.5-4,2.6-8,5.2-12,7.6,0,.4,0,.7,0,.9,0,.1,0,.2,0,.3,1.6,2.1.6,5.1-2.1,5.9-.2,0-.2.1-.4.1h-1.4c-.3,0-.5-.2-.7-.3-2.3-.9-3.2-3.6-1.9-5.6.3-.4.5-.8.4-1.2,0-.4,0-.8,0-1.2,0-.5,0-.9.2-1.3.3-.8.8-1.4,1.5-1.8,2.3-1.4,4.7-2.9,7-4.4,3.4-2.1,6.8-4.2,10.2-6.4,1.4-1,2.7-1,4.1,0,5.6,3.7,11.2,7.3,16.9,10.9.1,0,.4.2.6.4.6.4,1,.9,1.1,1.5,0,.2,0,.5,0,.8v.7c0,.8,0,1.7.5,2.5,1,1.5.4,3.6-1,4.6ZM149.2,144.5c0,.6,0,1.1-.4,1.6-.5.8-1.2,1.3-2.3,1.4-.1,0-.5,0-.8,0h-39.7c-.4,0-.8,0-1.2-.1-1.3-.2-2.2-1.4-2.2-2.8v-10.8c0-2.1,0-4.2,0-6.2,0-1.3.6-2.1,1.7-2.6,1.1-.5,2.1-.2,3,.6.7.6.9,1.4.9,2.3v9.1h.2c.2-.9.3-1.9.5-2.9.8-4.9,1.1-9.9,1.1-14.8s-.7-12.7-1.9-18.9c0-.5-.2-.8-.2-1.3,0-.2,0-.5-.2-.8,0-1.1.4-2.1,1.5-2.4,2.1-.7,4.2-1.4,6.3-1.9,3.6-1,7.3-1.4,11.1-1.4,5.5,0,10.8,1.3,15.9,3.3,1.4.5,1.9,1.6,1.6,3,0,.5-.2,1-.3,1.4-.2,1.2-.4,2.3-.7,3.5-1,6.1-1.4,12.2-1.2,18.4.1,4.6.5,9,1.3,13.5,0,.4.1.8.2,1.1h.1v-8.9c0-.3,0-.7,0-1.1.2-1.4,1.4-2.3,2.9-2.3,1.4,0,2.6,1.1,2.7,2.6v17.2h0Z"/>
      </g>
    </g>
  </g>
</svg>