<?xml version="1.0" encoding="UTF-8"?>
<svg xmlns="http://www.w3.org/2000/svg" version="1.1" viewBox="0 0 500 500">
  <defs>
    <style>
      .cls-1 { fill: #fff; }
    </style>
    <filter id="shadow" x="-20%" y="-20%" width="140%" height="140%">
      <feDropShadow dx="0" dy="2" stdDeviation="3" flood-color="#000" flood-opacity="0.2"/>
    </filter>
  </defs>
  <!-- Generator: Adobe Illustrator 28.6.0, SVG Export Plug-In . SVG Version: 1.2.0 Build 709)  -->
  <rect x="0" y="0" width="500" height="500" rx="30" ry="30" fill="#00A5B8" filter="url(#shadow)" />

  <g>
    <g id="Capa_1">
      <g>
        <g>
          <path class="cls-1" d="M434.4,43.8h-144.7V8.9h-13.1v196.6h13.1v-78.6h43.7v48h13.1v-48.1h115.8v166h13.1V84.7c0-22.6-18.4-40.9-40.9-40.9ZM333.4,113.7h-43.7v-56.8h43.7v56.8ZM462.2,113.7h-115.8v-56.8h87.9c15.3,0,27.8,12.5,27.8,27.8v29h0Z"/>
          <path class="cls-1" d="M224.2,437v-48h43.7v-13.1h-43.7v-48h43.7v-13.1h-43.7v-35h-13.1v35h-109.2v-35h-13.1v35H29.8v-35h-13.1v129.4c0,22.5,18.3,40.9,40.9,40.9h232.1v-13.1h-65.5ZM88.8,437h-31.1c-15.3,0-27.8-12.5-27.8-27.8v-20.2h59v48h0ZM88.8,375.8H29.8v-48h59v48ZM211.1,437h-109.2v-48h109.2v48ZM211.1,375.8h-109.2v-48h109.2v48Z"/>
        </g>
        <path class="cls-1" d="M495.7,359l-99,127.6-2.5,3.3c-1.1,1.4-2.5,2.1-4,2.3-1.5-.2-2.9-.9-4-2.3l-2.5-3.3-99-127.6c-3.6-4.6,1-11.1,6.6-9.2l64,22.3v-179.8h69.9v179.8l64-22.3c5.5-1.9,10.2,4.5,6.6,9.2h0Z"/>
      </g>
      <g>
        <path class="cls-1" d="M66.8,7.9C31.6,7.9,3,36.4,3,71.7s28.5,63.8,63.8,63.8,63.8-28.5,63.8-63.8S102,7.9,66.8,7.9ZM90.5,116.4c-1.7,1.4-4.1,1.4-5.7,0-1.6-1.4-2.1-3.7-1.1-5.5,0-.2.2-.4.3-.6.5-.8.5-1.1-.3-1.6-2.3-1.5-4.7-3-7-4.5-1.8-1.2-3.7-2.4-5.5-3.5-.2-.2-.6-.3-.9-.6,0,.4,0,.6,0,.8v8.3c0,.4.2.8.4,1.1,1.1,1.7,1,3.8-.2,5.3-1.1,1.4-3.1,2.1-4.9,1.5-1.9-.6-3.2-2.2-3.3-4.2,0-1,.3-1.8.8-2.6.2-.2.4-.6.4-1v-8.7c0,0,0-.2,0-.5-4.7,3-9.4,6-14,8.8-.2.6,0,1,.2,1.4,1.8,2.4.7,6-2.4,6.9-.2,0-.2.2-.4.2h-1.8c-.3,0-.6-.2-.8-.3-2.6-1.1-3.7-4.2-2.2-6.5.3-.5.5-1,.4-1.4,0-.5,0-1,0-1.4,0-1.6.6-2.7,2-3.6,2.7-1.7,5.4-3.4,8.1-5.2,4-2.5,8-4.9,11.9-7.5,1.6-1.1,3.1-1.1,4.8,0,6.5,4.3,13.1,8.4,19.7,12.6.2.2.5.3.7.5,1,.6,1.4,1.5,1.4,2.7v.8c0,1,0,2,.6,2.9,1.1,1.8.5,4.2-1.2,5.4h0ZM93.9,86.1c0,.7,0,1.4-.5,1.9-.6,1-1.4,1.5-2.6,1.6-.2,0-.6,0-.9,0h-46.2c-.5,0-1,0-1.4-.2-1.5-.3-2.5-1.6-2.5-3.3v-12.6c0-2.5,0-4.9,0-7.2,0-1.4.7-2.4,2-3s2.5-.3,3.5.6c.8.7,1,1.7,1,2.7v10.6h.2c.2-1.1.4-2.2.6-3.3.9-5.7,1.3-11.5,1.3-17.2,0-7.9-.9-15.8-2.5-23.5,0-.2,0-.6-.2-.9,0-1.4.5-2.4,1.8-2.9,2.4-.8,4.8-1.7,7.3-2.2,4.2-1.1,8.5-1.6,12.9-1.5,6.4,0,12.6,1.4,18.5,3.8,1.6.6,2.2,1.8,1.8,3.6-.4,1.9-.8,3.8-1.1,5.7-1.2,7.1-1.7,14.2-1.4,21.4.2,5.3.6,10.5,1.5,15.7,0,.5.2.9.2,1.4h.2v-10.4c0-.4,0-.8,0-1.2.3-1.7,1.8-2.7,3.4-2.7,1.6,0,2.9,1.4,3.1,3v20h0Z"/>
        <g>
          <path class="cls-1" d="M196.7,45.2c0-3.8,3.1-6.9,6.9-6.9s6.9,3.2,6.8,6.9-2.9,6.7-6.9,6.8c-3.8,0-6.9-3.1-6.9-6.9h0Z"/>
          <path class="cls-1" d="M217.8,86.3h-28.5v-10.8c1-.2,26.1-.3,28.5,0v10.8h0Z"/>
          <path class="cls-1" d="M217.6,93.9c.2.9.3,9.2.2,11h-28.5v-10.8c0,0,0,0,0,0,0,0,0,0,0,0,9.2,0,18.3,0,27.3,0h.8,0Z"/>
          <path class="cls-1" d="M188,61.4h31.2v3.6c-1,.2-28.9.3-31.2,0,0-1.2,0-2.4,0-3.7Z"/>
          <path class="cls-1" d="M203.5,7.9c-35.2,0-63.8,28.5-63.8,63.8s28.5,63.8,63.8,63.8,63.8-28.5,63.8-63.8S238.8,7.9,203.5,7.9ZM226.1,109.8c0,.6,0,1.3-.2,1.8-.4,2.2-2.2,3.8-4.4,3.9h-34.8c-.7,0-1.4,0-2-.2-2-.4-3.4-2-3.8-4,0-.6,0-1,0-1.6V33.5c0-.8,0-1.5.2-2.2.6-2,2.3-3.4,4.4-3.5h34.8c.6,0,1.3,0,1.9.2,2.1.5,3.5,2.2,3.7,4.5,0,.4,0,.8,0,1.2v76h0Z"/>
        </g>
        <path class="cls-1" d="M66.8,142.5c-35.2,0-63.8,28.5-63.8,63.8s28.5,63.8,63.8,63.8,63.8-28.5,63.8-63.8-28.5-63.8-63.8-63.8h0ZM39.7,235.6c0,.2,0,.5,0,.7,0,.8-.4,1.2-1.1,1.3h-4.5c-.8,0-1.1-.5-1.2-1.3v-47.1h6.9s0,46.4,0,46.4ZM90.2,226h-47v-36.8h46.9c.2.9.3,35.4,0,36.8ZM100.8,235.6c0,.2,0,.5,0,.7,0,.8-.4,1.2-1.1,1.3h-4.5c-.8,0-1.1-.5-1.2-1.2v-47.3h6.8c0,.5,0,.9,0,1.3v45.2h0ZM26,185.6c0-2.6,0-5.1,0-7.6,0-1.5,1.5-2.9,3-3,.5,0,1,0,1.4,0h72.7c.5,0,1,0,1.4,0,1.5.2,2.9,1.4,2.9,2.9.2,2.5,0,5,0,7.6H26h0Z"/>
        <g>
          <rect class="cls-1" x="173.3" y="212.1" width="60.4" height="7.4"/>
          <path class="cls-1" d="M203.5,142.5c-35.2,0-63.8,28.5-63.8,63.8s28.5,63.8,63.8,63.8,63.8-28.5,63.8-63.8-28.5-63.8-63.8-63.8h0ZM241.3,222.6c0,.5,0,1-.2,1.6-.3,1.6-1.8,2.8-3.5,2.9h-26.5v7.6c.2.2.5.3.8.4,2,1,4,2.1,6,3,.6.2.8.6.7,1.2v2.9h-30.2v-3.4c0-.3.2-.4.4-.6.9-.4,1.7-.8,2.5-1.2,1.5-.8,3-1.6,4.6-2.3v-7.6h-26c-.5,0-1,0-1.5-.2-1.5-.5-2.6-1.8-2.6-3.4v-49.6c0-2,1.7-3.5,3.6-3.6h67.6c.6,0,1,0,1.6.2,1.6.4,2.6,1.8,2.7,3.4,0,.3,0,.6,0,1v47.7h0Z"/>
        </g>
      </g>
    </g>
  </g>
</svg>
