<?xml version="1.0" encoding="UTF-8" standalone="no"?>
<!DOCTYPE svg PUBLIC "-//W3C//DTD SVG 1.1//EN" "http://www.w3.org/Graphics/SVG/1.1/DTD/svg11.dtd">
<svg width="100%" height="100%" viewBox="0 0 29375 7084" version="1.1" xmlns="http://www.w3.org/2000/svg" xmlns:xlink="http://www.w3.org/1999/xlink" xml:space="preserve" xmlns:serif="http://www.serif.com/" style="fill-rule:evenodd;clip-rule:evenodd;stroke-linejoin:round;stroke-miterlimit:2;">
    <g transform="matrix(4.16667,0,0,4.16667,0,0)">
        <g transform="matrix(101.748,0,0,101.748,-111588,-50504.1)">
            <g>
                <g transform="matrix(1,0,0,1,1154.69,502.391)">
                    <path d="M0,4.498L1.508,4.498C1.622,3.768 1.734,3.053 1.849,2.319L-0.435,2.319C-0.439,2.26 -0.445,2.215 -0.445,2.17C-0.445,1.728 -0.447,1.287 -0.445,0.845C-0.442,0.198 -0.076,-0.226 0.564,-0.278C1.003,-0.313 1.447,-0.299 1.888,-0.306C1.976,-0.307 2.064,-0.306 2.163,-0.306L2.163,-2.216C1.983,-2.24 1.796,-2.272 1.608,-2.29C0.878,-2.362 0.148,-2.438 -0.577,-2.251C-1.677,-1.967 -2.421,-1.171 -2.558,-0.043C-2.63,0.552 -2.609,1.159 -2.628,1.761C-2.633,1.937 -2.628,2.113 -2.628,2.308L-4.365,2.308L-4.365,4.491L-2.639,4.491L-2.639,10.037C-5.942,9.598 -9.197,6.757 -9.221,2.371C-9.245,-1.905 -5.861,-5.238 -1.806,-5.393C2.505,-5.558 6.071,-2.191 6.216,2.073C6.284,4.097 5.679,5.915 4.343,7.46C3.185,8.798 1.745,9.67 0,10.056L0,4.498Z" style="fill:rgb(229,229,229);fill-rule:nonzero;"/>
                </g>
                <g transform="matrix(1,0,0,1,1127.32,504.716)">
                    <path d="M0,0.003L-0.013,0.003C-0.013,0.59 -0.017,1.177 -0.011,1.765C-0.009,1.987 0,2.212 0.034,2.432C0.18,3.39 0.645,4.121 1.563,4.512C1.99,4.693 2.44,4.768 2.901,4.77C4.117,4.775 5.333,4.775 6.549,4.769C6.812,4.768 7.079,4.752 7.339,4.709C8.315,4.544 9.04,4.046 9.404,3.095C9.556,2.698 9.619,2.283 9.619,1.859C9.62,0.659 9.622,-0.542 9.617,-1.742C9.616,-1.97 9.606,-2.2 9.572,-2.425C9.419,-3.422 8.923,-4.164 7.956,-4.54C7.565,-4.692 7.154,-4.76 6.736,-4.762C5.448,-4.768 4.159,-4.769 2.87,-4.762C2.389,-4.759 1.919,-4.673 1.479,-4.467C0.504,-4.01 0.072,-3.187 0.009,-2.163C-0.036,-1.444 0,-0.719 0,0.003M4.801,7.801C0.493,7.8 -2.999,4.3 -2.994,-0.011C-2.989,-4.309 0.511,-7.799 4.813,-7.794C9.115,-7.789 12.603,-4.294 12.6,0.009C12.597,4.311 9.103,7.802 4.801,7.801" style="fill:rgb(229,229,229);fill-rule:nonzero;"/>
                </g>
                <g transform="matrix(1,0,0,1,1134.66,507.742)">
                    <path d="M0,-6.049C-0.278,-6.047 -0.502,-5.82 -0.501,-5.543C-0.5,-5.257 -0.27,-5.035 0.019,-5.04C0.296,-5.046 0.518,-5.276 0.512,-5.553C0.506,-5.832 0.279,-6.051 0,-6.049M-0.009,-3.012C-0.009,-4.423 -1.132,-5.555 -2.534,-5.556C-3.949,-5.558 -5.077,-4.432 -5.078,-3.017C-5.079,-1.617 -3.949,-0.491 -2.538,-0.488C-1.146,-0.484 -0.009,-1.62 -0.009,-3.012M-2.542,-6.888C-1.907,-6.888 -1.273,-6.894 -0.639,-6.884C-0.428,-6.881 -0.213,-6.858 -0.007,-6.811C0.763,-6.636 1.262,-6.07 1.354,-5.28C1.374,-5.105 1.384,-4.928 1.385,-4.751C1.387,-3.566 1.395,-2.381 1.38,-1.196C1.376,-0.905 1.332,-0.602 1.239,-0.326C0.999,0.385 0.459,0.765 -0.271,0.806C-1.178,0.857 -2.089,0.852 -2.998,0.855C-3.6,0.856 -4.204,0.854 -4.805,0.81C-5.723,0.743 -6.339,0.122 -6.443,-0.796C-6.462,-0.956 -6.472,-1.117 -6.473,-1.278C-6.475,-2.479 -6.483,-3.68 -6.467,-4.88C-6.464,-5.161 -6.416,-5.453 -6.326,-5.718C-6.085,-6.43 -5.545,-6.797 -4.816,-6.852C-4.185,-6.9 -3.549,-6.889 -2.916,-6.903C-2.791,-6.906 -2.666,-6.903 -2.542,-6.903L-2.542,-6.888Z" style="fill:rgb(229,229,229);fill-rule:nonzero;"/>
                </g>
                <g transform="matrix(0.000611621,-1,-1,-0.000611621,1132.12,503.085)">
                    <path d="M-1.635,-1.634C-2.541,-1.634 -3.27,-0.905 -3.27,0.001C-3.27,0.906 -2.539,1.636 -1.635,1.636C-0.729,1.636 0,0.906 0,0.001C-0,-0.905 -0.73,-1.634 -1.635,-1.634" style="fill:rgb(229,229,229);fill-rule:nonzero;"/>
                </g>
                <g transform="matrix(1,0,0,1,1109.77,501.712)">
                    <path d="M0,6.016C0.852,6.016 1.704,6.02 2.557,6.015C3.536,6.01 4.21,5.332 4.212,4.352C4.215,3.456 4.215,2.56 4.212,1.665C4.21,0.685 3.536,0.004 2.557,0.002C0.858,-0.003 -0.842,-0.003 -2.541,0.002C-3.521,0.004 -4.194,0.685 -4.197,1.665C-4.199,2.56 -4.199,3.456 -4.195,4.351C-4.195,4.491 -4.184,4.634 -4.153,4.769C-3.979,5.528 -3.363,6.01 -2.557,6.015C-1.704,6.02 -0.852,6.016 0,6.016M0.507,11.008L-0.491,11.008C-0.525,10.999 -0.559,10.985 -0.594,10.983C-1.271,10.934 -1.933,10.81 -2.569,10.574C-5.469,9.497 -7.229,7.436 -7.85,4.401C-7.91,4.107 -7.935,3.806 -7.977,3.508L-7.977,2.508C-7.936,2.216 -7.904,1.921 -7.854,1.63C-7.3,-1.61 -4.765,-4.212 -1.552,-4.834C-1.191,-4.904 -0.824,-4.94 -0.46,-4.992L0.507,-4.992C0.557,-4.982 0.608,-4.972 0.658,-4.964C1.083,-4.895 1.516,-4.859 1.932,-4.754C6.095,-3.702 8.659,0.36 7.836,4.582C7.209,7.793 4.607,10.336 1.383,10.886C1.092,10.935 0.799,10.968 0.507,11.008" style="fill:rgb(229,229,229);fill-rule:nonzero;"/>
                </g>
                <g transform="matrix(1,0,0,1,1108.69,506.002)">
                    <path d="M0,-2.565C0.737,-2.135 1.456,-1.714 2.2,-1.279C1.457,-0.847 0.738,-0.429 0,0L0,-2.565Z" style="fill:rgb(229,229,229);fill-rule:nonzero;"/>
                </g>
            </g>
        </g>
    </g>
</svg>
