<?xml version="1.0" encoding="UTF-8"?>
<svg xmlns="http://www.w3.org/2000/svg" xmlns:xlink="http://www.w3.org/1999/xlink" viewBox="0 0 1686.77 495.34">
  <defs>
    <style>
      .cls-1 {
        fill: #ff5100;
      }

      .cls-2 {
        mask: url(#mask-1);
      }

      .cls-3 {
        fill: url(#Degradado_sin_nombre_11);
      }

      .cls-4 {
        fill: url(#radial-gradient-3);
      }

      .cls-4, .cls-5 {
        mix-blend-mode: multiply;
      }

      .cls-6 {
        fill: url(#radial-gradient-4);
        mix-blend-mode: overlay;
        opacity: .74;
      }

      .cls-5 {
        fill: url(#radial-gradient);
      }

      .cls-7 {
        mask: url(#mask);
      }

      .cls-8 {
        fill: url(#radial-gradient-2);
        opacity: .4;
      }

      .cls-9 {
        mask: url(#mask-2);
      }

      .cls-10 {
        filter: url(#luminosity-noclip-3);
      }

      .cls-11 {
        isolation: isolate;
      }

      .cls-12 {
        fill: url(#Degradado_sin_nombre_9);
      }

      .cls-13 {
        fill: #595959;
      }

      .cls-14 {
        fill: #eee;
      }

      .cls-15 {
        mask: url(#mask-3);
      }

      .cls-16 {
        filter: url(#luminosity-noclip);
      }
    </style>
    <linearGradient id="Degradado_sin_nombre_11" data-name="Degradado sin nombre 11" x1="360.78" y1="270.75" x2="348.97" y2="273.04" gradientTransform="translate(899.54 375.19) rotate(-44.44)" gradientUnits="userSpaceOnUse">
      <stop offset="0" stop-color="#ffe2da"/>
      <stop offset=".88" stop-color="#ff5100"/>
    </linearGradient>
    <linearGradient id="Degradado_sin_nombre_9" data-name="Degradado sin nombre 9" x1="1032.87" y1="-1166.62" x2="1123.91" y2="-1166.62" gradientTransform="translate(1270.74 -1265.91) rotate(135.56)" gradientUnits="userSpaceOnUse">
      <stop offset="0" stop-color="#ff5100"/>
      <stop offset="1" stop-color="#ffb79e"/>
    </linearGradient>
    <filter id="luminosity-noclip" x="1280.91" y="284.6" width="65.98" height="40.96" color-interpolation-filters="sRGB" filterUnits="userSpaceOnUse">
      <feFlood flood-color="#fff" result="bg"/>
      <feBlend in="SourceGraphic" in2="bg"/>
    </filter>
    <filter id="luminosity-noclip-2" x="1280.91" y="-7815.22" width="65.98" height="32766" color-interpolation-filters="sRGB" filterUnits="userSpaceOnUse">
      <feFlood flood-color="#fff" result="bg"/>
      <feBlend in="SourceGraphic" in2="bg"/>
    </filter>
    <mask id="mask-1" x="1280.91" y="-7815.22" width="65.98" height="32766" maskUnits="userSpaceOnUse"/>
    <radialGradient id="radial-gradient" cx="1220.39" cy="53.52" fx="1220.39" fy="53.52" r="75.17" gradientTransform="translate(202.68 -249.19) rotate(25.56)" gradientUnits="userSpaceOnUse">
      <stop offset="0" stop-color="#fff"/>
      <stop offset="1" stop-color="#000"/>
    </radialGradient>
    <mask id="mask" x="1280.91" y="284.6" width="65.98" height="40.96" maskUnits="userSpaceOnUse">
      <g class="cls-16">
        <g class="cls-2">
          <path class="cls-5" d="M1281.12,325.43s.06.08.08.13c2.18-1.58,5-3.37,8.38-5.46,5.18-3.18,11.93-7.06,19.32-11.67,2.67-1.59,5.41-3.15,6.64-3.83,19.87-10.75,28.24-8.41,30.9,13.12.1.81.19,1.66.28,2.51.06.24.13.48.19.74-.14-5.6-.33-11.25-.81-16.41-1.04-11.12-3.45-17.23-7.59-19.2-4.38-2.1-10.99.13-21.43,7.23-1.01.71-3.64,2.59-6.19,4.5-4.01,3.12-7.79,5.93-11.12,8.41-2.28,1.7-4.37,3.26-6.21,4.66-4.56,3.52-7.75,6.11-9.56,8.24-1.76,2.07-2.75,3.67-2.95,4.75-.25,1.37-.05,2.02.09,2.28Z"/>
        </g>
      </g>
    </mask>
    <radialGradient id="radial-gradient-2" cx="1220.39" cy="53.52" fx="1220.39" fy="53.52" r="75.17" gradientTransform="translate(202.68 -249.19) rotate(25.56)" gradientUnits="userSpaceOnUse">
      <stop offset="0" stop-color="#fff"/>
      <stop offset="1" stop-color="#fff"/>
    </radialGradient>
    <filter id="luminosity-noclip-3" x="1283.62" y="310.96" width="63.68" height="17.18" color-interpolation-filters="sRGB" filterUnits="userSpaceOnUse">
      <feFlood flood-color="#fff" result="bg"/>
      <feBlend in="SourceGraphic" in2="bg"/>
    </filter>
    <filter id="luminosity-noclip-4" x="1283.62" y="-7815.22" width="63.68" height="32766" color-interpolation-filters="sRGB" filterUnits="userSpaceOnUse">
      <feFlood flood-color="#fff" result="bg"/>
      <feBlend in="SourceGraphic" in2="bg"/>
    </filter>
    <mask id="mask-3" x="1283.62" y="-7815.22" width="63.68" height="32766" maskUnits="userSpaceOnUse"/>
    <radialGradient id="radial-gradient-3" cx="1265.04" cy="16.73" fx="1265.04" fy="16.73" r="12.01" xlink:href="#radial-gradient"/>
    <mask id="mask-2" x="1283.62" y="310.96" width="63.68" height="17.18" maskUnits="userSpaceOnUse">
      <g class="cls-10">
        <g class="cls-15">
          <path class="cls-4" d="M1346.89,320.96c-.73-3.1-1.58-5.24-2.63-6.78-.75-1.07-1.7-1.88-2.85-2.44-2.73-1.31-6.49-.98-10.32.9-8.44,3.89-13.88,6.24-25.61,10.69-.89.41-2.36.94-4.42,1.59-2.05.65-4.55,1.27-7.64,1.89-2.79.57-5.54.75-8.17.59-.61-.04-1.14-.11-1.6-.21-.01.22-.02.46-.03.68.47.09,1,.16,1.59.2,2.54.16,5.36,0,8.34-.61,3-.59,5.57-1.22,7.71-1.9,2.15-.68,3.62-1.22,4.46-1.6,11.67-4.41,17.08-6.75,25.68-10.71,4.74-2.35,9.76-2.38,12.3,1.32,1.68,2.45,2.73,6.61,3.58,12.17.06-2.18-.02-4.05-.39-5.78Z"/>
        </g>
      </g>
    </mask>
    <radialGradient id="radial-gradient-4" cx="1265.04" cy="16.73" fx="1265.04" fy="16.73" r="12.01" xlink:href="#radial-gradient-2"/>
  </defs>
  <g class="cls-11">
    <g id="Capa_1" data-name="Capa 1">
      <g>
        <g>
          <path class="cls-14" d="M1267.26,375.93c-1.82,0-3.52-.48-5.1-1.43-1.58-.95-2.82-2.17-3.71-3.66v4.65h-2.06v-32.66h2.24v14.45c1.1-1.61,2.41-2.92,3.91-3.94,1.51-1.01,3.24-1.52,5.21-1.52,1.64,0,3.13.35,4.45,1.06,1.33.7,2.45,1.62,3.36,2.77.91,1.15,1.61,2.45,2.1,3.89.49,1.45.74,2.92.74,4.41,0,1.61-.28,3.14-.85,4.59-.57,1.44-1.35,2.71-2.35,3.8-1,1.09-2.18,1.96-3.54,2.62-1.36.66-2.83.98-4.41.98ZM1266.81,373.92c1.37,0,2.62-.28,3.76-.85,1.13-.57,2.11-1.32,2.93-2.26.82-.94,1.46-2.01,1.92-3.2.46-1.19.69-2.41.69-3.67s-.22-2.57-.65-3.78c-.43-1.21-1.04-2.28-1.83-3.22s-1.73-1.69-2.82-2.26c-1.09-.57-2.29-.85-3.6-.85-.98,0-1.91.17-2.77.51-.87.34-1.66.8-2.39,1.36-.73.57-1.39,1.22-1.97,1.97-.58.75-1.07,1.52-1.45,2.33v7.7c.09.87.42,1.68.98,2.44.57.76,1.24,1.42,2.04,1.97.79.55,1.65.99,2.57,1.32.92.33,1.79.49,2.59.49Z"/>
          <path class="cls-14" d="M1284.53,383.36c.15.03.37.05.67.05s.57-.02.83-.05c.25-.03.5-.1.74-.23.18-.09.34-.22.49-.38.15-.16.36-.5.63-1.01.27-.5.61-1.25,1.03-2.24.42-.98.98-2.33,1.7-4.03l-10.38-23.26h2.33l9.26,21.07,8.63-21.07h2.19l-12.75,30.6c-.33.83-.86,1.48-1.59,1.95-.73.46-1.72.69-2.98.69h-.38c-.13,0-.28-.02-.43-.05v-2.06Z"/>
        </g>
        <g>
          <path class="cls-14" d="M1331.35,329.51c-.93-2.44-3.27-4.05-5.88-4.05s-4.94,1.61-5.87,4.04l-18.14,47.35h7.95l3.5-9.44,1.22-3.3,2.36-6.37.4-1.07,7.82-21.05c.2-.54.96-.54,1.16,0l7.37,20.15,3.07,8.34h0l.62,1.68.07.19,3.97,10.87h8.37l-18-47.34Z"/>
          <g>
            <path class="cls-3" d="M1336.71,311.55c1.69,3.92,11.06,32.88,10.97,18.96-.16-1.1-.04-2.12-.17-3.02-.87-5.98-1.93-10.43-3.68-13.02-1.61-2.37-4.15-3.27-7.12-2.93Z"/>
            <path class="cls-12" d="M1346.75,304.51c-2.2-23.56-10.65-25.68-30.09-12.47-1.16.82-3.73,2.66-6.21,4.51-6.75,5.25-12.79,9.59-17.33,13.07-4.53,3.49-7.81,6.15-9.66,8.33-1.84,2.18-2.88,3.86-3.1,5.08-.22,1.22-.15,2.13.16,2.7.8,1.53,2.16,2.2,4.69,2.36,2.54.16,5.36,0,8.34-.61,3-.59,5.57-1.22,7.71-1.9,2.15-.68,3.62-1.22,4.46-1.6,11.67-4.41,17.08-6.75,25.68-10.71,4.74-2.35,9.76-2.38,12.3,1.32,1.77,2.57,2.84,7.01,3.71,13,.13.9.09,1.83.26,2.93-.28-8.91-.17-17.91-.93-26.01Z"/>
            <g class="cls-7">
              <path class="cls-8" d="M1281.12,325.43s.06.08.08.13c2.18-1.58,5-3.37,8.38-5.46,5.18-3.18,11.93-7.06,19.32-11.67,2.67-1.59,5.41-3.15,6.64-3.83,19.87-10.75,28.24-8.41,30.9,13.12.1.81.19,1.66.28,2.51.06.24.13.48.19.74-.14-5.6-.33-11.25-.81-16.41-1.04-11.12-3.45-17.23-7.59-19.2-4.38-2.1-10.99.13-21.43,7.23-1.01.71-3.64,2.59-6.19,4.5-4.01,3.12-7.79,5.93-11.12,8.41-2.28,1.7-4.37,3.26-6.21,4.66-4.56,3.52-7.75,6.11-9.56,8.24-1.76,2.07-2.75,3.67-2.95,4.75-.25,1.37-.05,2.02.09,2.28Z"/>
            </g>
            <g class="cls-9">
              <path class="cls-6" d="M1346.89,320.96c-.73-3.1-1.58-5.24-2.63-6.78-.75-1.07-1.7-1.88-2.85-2.44-2.73-1.31-6.49-.98-10.32.9-8.44,3.89-13.88,6.24-25.61,10.69-.89.41-2.36.94-4.42,1.59-2.05.65-4.55,1.27-7.64,1.89-2.79.57-5.54.75-8.17.59-.61-.04-1.14-.11-1.6-.21-.01.22-.02.46-.03.68.47.09,1,.16,1.59.2,2.54.16,5.36,0,8.34-.61,3-.59,5.57-1.22,7.71-1.9,2.15-.68,3.62-1.22,4.46-1.6,11.67-4.41,17.08-6.75,25.68-10.71,4.74-2.35,9.76-2.38,12.3,1.32,1.68,2.45,2.73,6.61,3.58,12.17.06-2.18-.02-4.05-.39-5.78Z"/>
            </g>
          </g>
          <path class="cls-14" d="M1363.98,351.08c0,11.06,6.87,18.96,16.63,18.96h24.05v6.8h-24.12c-6.56,0-12.41-2.55-16.74-6.8-4.74-4.66-7.65-11.35-7.65-18.96s2.89-14.2,7.61-18.83c4.33-4.25,10.2-6.8,16.78-6.8h24.12v6.8h-24.05c-9.76,0-16.63,7.9-16.63,18.83Z"/>
          <path class="cls-14" d="M1419.29,351.08c0,11.06,6.87,18.96,16.63,18.96h24.05v6.8h-24.12c-6.56,0-12.41-2.55-16.74-6.8-4.74-4.66-7.65-11.35-7.65-18.96s2.89-14.2,7.61-18.83c4.33-4.25,10.2-6.8,16.78-6.8h24.12v6.8h-24.05c-9.76,0-16.63,7.9-16.63,18.83Z"/>
          <path class="cls-14" d="M1474.2,351.08c0,11.06,6.87,18.96,16.63,18.96h24.05v6.8h-24.12c-6.56,0-12.41-2.55-16.74-6.8-4.74-4.66-7.65-11.35-7.65-18.96s2.89-14.2,7.61-18.83c4.33-4.25,10.2-6.8,16.78-6.8h24.12v6.8h-24.05c-9.76,0-16.63,7.9-16.63,18.83Z"/>
          <rect class="cls-14" x="1480.75" y="347.89" width="30.91" height="6.8"/>
          <rect class="cls-1" x="1576.98" y="347.89" width="30.91" height="6.8"/>
          <g>
            <path class="cls-13" d="M1554.54,347.87h-18.03c.28.01.57.02.87.02h18.14c-.32-.01-.65-.02-.98-.02Z"/>
            <path class="cls-14" d="M1528.47,340.19c0,3.22,1.1,7.36,8.03,7.68.28.01.57.02.87.02h18.14c2.1.08,4.01.43,5.71,1.01,5.65,1.94,8.95,6.51,8.95,12.78,0,8.24-5.56,15.14-15.78,15.14h-32.73v-6.66h32.73c7.04,0,8.98-4.35,8.98-7.81,0-3.22-1.1-7.36-8.03-7.68-.28-.01-.57-.02-.87-.02h-18.14c-2.1-.08-4.01-.43-5.71-1.01-5.65-1.94-8.95-6.51-8.95-12.78,0-8.24,5.56-15.14,15.78-15.14h32.73v6.66h-32.73c-7.04,0-8.97,4.35-8.97,7.81Z"/>
          </g>
          <path class="cls-14" d="M1679.16,332.37c-4.15-4.07-9.72-6.59-15.96-6.79-.27-.01-.54-.02-.82-.02h-23.3c-.27,0-.55,0-.82.02-6.25.2-11.81,2.71-15.96,6.79-4.72,4.63-7.61,11.27-7.61,18.83s2.91,14.31,7.65,18.96c4.15,4.07,9.69,6.59,15.92,6.79.27.01.54.02.82.02h23.3c.27,0,.55,0,.82-.02,6.23-.2,11.77-2.71,15.92-6.79,4.74-4.66,7.65-11.35,7.65-18.96s-2.89-14.2-7.61-18.83ZM1662.31,370.16h-23.16c-9.76,0-16.63-7.9-16.63-18.96s6.87-18.83,16.63-18.83h23.16c9.76,0,16.63,7.9,16.63,18.83s-6.87,18.96-16.63,18.96Z"/>
        </g>
      </g>
      <g>
        <path class="cls-14" d="M366.29,152.82v19.96h-4.71c-5.49,0-10.65.89-15.26,3.15-11.87,5.79-19.93,18.42-19.93,34.56v57.98h-19.97v-57.98c0-16.44,6.08-31.46,17.14-42.29.9-.9,1.84-1.77,2.82-2.57,5.83-5,12.61-8.61,19.93-10.69,4.84-1.39,9.92-2.12,15.1-2.12h4.86Z"/>
        <path class="cls-14" d="M1075.59,152.82v19.96h-4.71c-5.49,0-10.65.89-15.26,3.15-11.87,5.79-19.93,18.42-19.93,34.56v57.98h-19.97v-57.98c0-16.44,6.08-31.46,17.14-42.29.9-.9,1.84-1.77,2.82-2.57,5.83-5,12.61-8.61,19.93-10.69,4.84-1.39,9.92-2.12,15.1-2.12h4.86Z"/>
        <g>
          <rect class="cls-14" x="870.67" y="114.88" width="125.1" height="19.97"/>
          <rect class="cls-14" x="923.23" y="149.82" width="19.97" height="118.64"/>
        </g>
        <g>
          <rect class="cls-14" x="516.37" y="172.79" width="19.97" height="95.66"/>
          <rect class="cls-14" x="516.37" y="152.81" width="19.97" height="14.98"/>
        </g>
        <g>
          <path class="cls-14" d="M96.46,183.48h-52.94c.82.04,1.68.06,2.56.06h53.26c-.95-.04-1.9-.06-2.88-.06Z"/>
          <path class="cls-14" d="M19.95,160.94c0,9.44,3.23,21.61,23.57,22.54.82.04,1.68.06,2.56.06h53.26c6.16.24,11.77,1.25,16.75,2.97,16.59,5.68,26.27,19.1,26.27,37.52,0,24.2-16.33,44.43-46.31,44.43H-.02v-19.56h96.07c20.66,0,26.35-12.78,26.35-22.93,0-9.44-3.24-21.61-23.57-22.55-.82-.04-1.68-.06-2.57-.06h-53.25c-6.16-.24-11.77-1.25-16.75-2.97C9.66,194.71-.02,181.29-.02,162.87c0-24.2,16.33-44.43,46.31-44.43h96.07v19.56H46.29c-20.66,0-26.34,12.78-26.34,22.94Z"/>
        </g>
        <path class="cls-1" d="M1533.01,114.88v153.59h-22.63V114.88h22.63Z"/>
        <path class="cls-1" d="M1606.02,268.47h-50.3V114.88h51.43c47.69,0,79.62,29.5,79.62,73.62-.09,46.56-34.9,79.97-80.75,79.97h0ZM1607.15,135.76h-28.8v112.08h27.67c32.37,0,57.43-23.06,57.43-57,0-31.5-23.06-55.08-56.3-55.08h0Z"/>
        <path class="cls-14" d="M267.59,184.34c0-7-4.45-11.91-10.59-11.91h-39.72c-19.63,0-35.19,15.65-35.19,38.05s15.55,38.38,35.19,38.38h54.25v19.59h-54.41c-14.28,0-27.71-5.45-37.8-15.36-11.1-10.91-17.2-26.05-17.2-42.62s6.08-31.46,17.14-42.29c10.08-9.92,23.54-15.38,37.86-15.38h39.91c5.16,0,10.12,1.29,14.49,3.73,2.29,1.27,4.41,2.86,6.32,4.73,6.04,5.94,9.38,14.12,9.38,23.07s-3.31,17.02-9.36,22.91c-5.53,5.47-12.95,8.47-20.83,8.47h-54.98v-19.46h54.92c6.16,0,10.61-5.02,10.61-11.93Z"/>
        <path class="cls-14" d="M791.14,184.34c0-7-4.45-11.91-10.59-11.91h-39.72c-19.63,0-35.19,15.65-35.19,38.05s15.55,38.38,35.19,38.38h54.25v19.59h-54.41c-14.28,0-27.71-5.45-37.8-15.36-11.1-10.91-17.2-26.05-17.2-42.62s6.08-31.46,17.14-42.29c10.08-9.92,23.54-15.38,37.86-15.38h39.91c5.16,0,10.12,1.29,14.49,3.73,2.29,1.27,4.41,2.86,6.32,4.73,6.04,5.94,9.38,14.12,9.38,23.07s-3.31,17.02-9.36,22.91c-5.53,5.47-12.95,8.47-20.83,8.47h-54.98v-19.46h54.92c6.16,0,10.61-5.02,10.61-11.93Z"/>
        <path class="cls-14" d="M1115.19,236.95c0,7,4.45,11.91,10.59,11.91h39.72c19.63,0,35.19-15.65,35.19-38.05s-15.55-38.38-35.19-38.38h-54.25s0-19.59,0-19.59h54.41c14.28,0,27.71,5.45,37.8,15.36,11.1,10.91,17.2,26.05,17.2,42.62,0,16.44-6.08,31.46-17.14,42.29-10.08,9.92-23.54,15.38-37.86,15.38h-39.91c-5.16,0-10.12-1.29-14.49-3.73-2.29-1.27-4.41-2.86-6.32-4.73-6.04-5.94-9.38-14.12-9.38-23.07,0-8.89,3.31-17.02,9.36-22.91,5.53-5.47,12.95-8.47,20.83-8.47h54.98s0,19.46,0,19.46h-54.92c-6.16,0-10.61,5.02-10.61,11.93Z"/>
        <path class="cls-14" d="M441.14,268.46c-6.18,0-11.79-3.86-13.97-9.63l-40.91-106.01h20.54l10.49,27.15.18.47,6.92,18.75,16.57,45.37c.14.35.47.39.57.39s.43-.04.57-.39l18.5-49.78,16.12-41.95h19.57l-41.21,106.05c-2.2,5.75-7.81,9.59-13.95,9.59Z"/>
        <path class="cls-14" d="M665.71,152.82v19.59h-54.25c-3.69,0-7.22.55-10.53,1.61-1.67.53-3.26,1.18-4.81,1.94-.71.35-1.41.73-2.1,1.12-.63.37-1.24.75-1.82,1.14-1.18.8-2.29,1.67-3.37,2.63t-.02,0c-.43.39-.86.78-1.27,1.2-6.3,6.1-10.43,14.85-11.14,25.24-.04.47-.06.94-.08,1.41-.02.69-.04,1.39-.04,2.1,0,.61.02,1.2.04,1.78.02.47.04.94.08,1.41.71,10.4,4.84,19.14,11.14,25.24.41.43.84.82,1.27,1.2h.02c1.08.96,2.2,1.82,3.37,2.63.61.39,1.22.78,1.82,1.14.69.39,1.39.76,2.1,1.12,1.55.76,3.14,1.41,4.81,1.94.41.14.82.25,1.26.37,2.94.82,6.06,1.24,9.28,1.24h54.25v19.59h-54.41c-6.26,0-12.34-1.04-18.04-3.04-.92-.31-1.84-.67-2.73-1.04-.69-.27-1.35-.57-2.02-.88-.49-.22-.98-.45-1.47-.71-1.47-.75-2.9-1.55-4.3-2.41h-.02c-1.65-1.04-3.24-2.16-4.79-3.37h-.02c-.78-.61-1.55-1.24-2.29-1.9-.73-.65-1.43-1.31-2.12-2-10.42-10.22-16.42-24.16-17.12-39.54-.06-.92-.08-1.84-.08-2.77,0-1.04.02-2.06.08-3.08.71-15.38,6.71-29.32,17.12-39.54.69-.69,1.39-1.35,2.12-2,.75-.65,1.51-1.27,2.29-1.9h.02c1.55-1.22,3.14-2.33,4.79-3.37h.02c1.39-.86,2.82-1.67,4.3-2.41l1.47-.71c.67-.31,1.33-.61,2.02-.88.9-.37,1.8-.71,2.73-1.04,5.71-2,11.81-3.04,18.04-3.04h54.41Z"/>
        <path class="cls-14" d="M1350.53,152.82v19.59h-54.25c-3.69,0-7.22.55-10.53,1.61-1.67.53-3.26,1.18-4.81,1.94-.71.35-1.41.73-2.1,1.12-.63.37-1.24.75-1.82,1.14-1.18.8-2.29,1.67-3.37,2.63t-.02,0c-.43.39-.86.78-1.27,1.2-6.3,6.1-10.43,14.85-11.14,25.24-.04.47-.06.94-.08,1.41-.02.69-.04,1.39-.04,2.1,0,.61.02,1.2.04,1.78.02.47.04.94.08,1.41.71,10.4,4.84,19.14,11.14,25.24.41.43.84.82,1.27,1.2h.02c1.08.96,2.2,1.82,3.37,2.63.61.39,1.22.78,1.82,1.14.69.39,1.39.76,2.1,1.12,1.55.76,3.14,1.41,4.81,1.94.41.14.82.25,1.26.37,2.94.82,6.06,1.24,9.28,1.24h54.25v19.59h-54.41c-6.26,0-12.34-1.04-18.04-3.04-.92-.31-1.84-.67-2.73-1.04-.69-.27-1.35-.57-2.02-.88-.49-.22-.98-.45-1.47-.71-1.47-.75-2.9-1.55-4.3-2.41h-.02c-1.65-1.04-3.24-2.16-4.79-3.37h-.02c-.78-.61-1.55-1.24-2.29-1.9-.73-.65-1.43-1.31-2.12-2-10.42-10.22-16.42-24.16-17.12-39.54-.06-.92-.08-1.84-.08-2.77,0-1.04.02-2.06.08-3.08.71-15.38,6.71-29.32,17.12-39.54.69-.69,1.39-1.35,2.12-2,.75-.65,1.51-1.27,2.29-1.9h.02c1.55-1.22,3.14-2.33,4.79-3.37h.02c1.39-.86,2.82-1.67,4.3-2.41l1.47-.71c.67-.31,1.33-.61,2.02-.88.9-.37,1.8-.71,2.73-1.04,5.71-2,11.81-3.04,18.04-3.04h54.41Z"/>
        <g>
          <rect class="cls-14" x="1370.49" y="125.74" width="19.97" height="142.72"/>
          <path class="cls-14" d="M1410.42,210.88v.04s-.04-.02-.04-.02c0,0,.02,0,.04-.02Z"/>
          <path class="cls-14" d="M1397.92,213.55v24.18l30.62,30.62,25.93.12-56.55-54.92ZM1425.71,162.81l-27.79,27.13v23.62l52.57-50.74h-24.77Z"/>
        </g>
      </g>
    </g>
  </g>
</svg>