<?xml version="1.0" encoding="UTF-8"?>
<svg id="Capa_1" xmlns="http://www.w3.org/2000/svg" viewBox="0 0 1920 900">
  <defs>
    <style>
      .cls-1 {
        fill: #e45c2b;
      }

      .cls-2 {
        fill: #5e5e5e;
      }

      .cls-3 {
        fill: #595959;
      }
    </style>
  </defs>
  <g>
    <path class="cls-3" d="M599.04,551.44l21.91-10.7c6.62,14.78,21.15,22.67,41.27,22.67s35.16-9.43,35.16-26.24c0-18.85-17.32-22.17-37.45-25.99-25.73-5.1-57.58-13.5-57.58-49.68,0-28.28,25.73-49.68,58.09-49.68,25.99,0,49.17,12.23,59.36,35.67l-21.65,11.21c-6.88-14.01-19.87-22.67-38.72-22.67-17.32,0-31.34,10.19-31.34,24.71,0,18.34,18.09,22.42,38.72,26.5,25.48,5.1,56.56,13.5,56.56,49.68,0,30.06-26.75,50.95-61.14,50.95-28.79,0-52.99-12.99-63.18-36.43Z"/>
    <path class="cls-3" d="M775.33,411.57v176.3h-25.99v-176.3h25.99Z"/>
    <path class="cls-3" d="M958.51,505.1v50.42c-11.72,17.07-36.94,32.61-70.31,32.61-48.92,0-86.88-39.49-86.88-88.66s37.71-87.89,86.88-87.89c28.28,0,55.79,13.75,69.04,39.74l-21.15,12.23c-10.19-17.58-28.02-27.51-48.92-27.51-33.62,0-59.1,28.28-59.1,63.94s25.48,64.2,60.13,64.2c20.38,0,36.94-7.89,45.09-17.58v-15.51h-46.05v-25.99h71.27Z"/>
    <path class="cls-3" d="M984.5,587.77v-152c0-15.54,10.19-24.46,23.18-24.46,10.45,0,17.58,4.08,22.42,12.99l71.84,134.26c.76,2.29,1.27,3.31,2.8,3.31,1.02,0,1.27-.51,1.27-2.04v-148.53h24.71v152.61c0,15.54-10.96,24.2-22.67,24.2-9.68,0-18.09-4.08-22.93-13.25l-71.59-134.52c-.51-2.04-1.02-3.06-2.29-3.06-1.53,0-2.04,1.02-2.04,3.06v147.41h-24.71Z"/>
    <path class="cls-3" d="M1182.71,411.32v176.46h-25.99v-176.46h25.99Z"/>
    <path class="cls-3" d="M1374.8,551.44l21.91-10.7c6.62,14.78,21.15,22.67,41.27,22.67s35.16-9.43,35.16-26.24c0-18.85-17.32-22.17-37.45-25.99-25.73-5.1-57.58-13.5-57.58-49.68,0-28.28,25.73-49.68,58.09-49.68,25.99,0,49.17,12.23,59.36,35.67l-21.65,11.21c-6.88-14.01-19.87-22.67-38.72-22.67-17.32,0-31.34,10.19-31.34,24.71,0,18.34,18.09,22.42,38.72,26.5,25.48,5.1,56.56,13.5,56.56,49.68,0,30.06-26.75,50.95-61.14,50.95-28.79,0-52.99-12.99-63.18-36.43Z"/>
    <path class="cls-3" d="M1602.92,411.32v176.46h-25.99v-176.46h25.99Z"/>
    <path class="cls-3" d="M1686.79,587.77h-57.83v-176.46h59.11c54.78,0,91.46,33.88,91.46,84.58,0,53.5-40,91.87-92.74,91.87ZM1688.06,435.27h-33.12v128.81h31.85c37.2,0,65.98-26.5,65.98-65.47,0-36.18-26.5-63.34-64.71-63.34Z"/>
    <path class="cls-3" d="M1208.69,509.72v-98.4h25.83v97.63c0,34.26,14.18,53.33,44.07,53.33s44.07-19.06,44.07-53.33v-97.63h25.83v98.4c0,47.92-22.29,77.29-69.9,77.29s-69.9-29.37-69.9-77.29Z"/>
  </g>
  <g>
    <polygon class="cls-1" points="455.62 580.2 417.83 618.08 335.82 700.09 297.18 661.45 269.82 634.08 254.19 618.46 173.6 537.87 130.89 580.48 92.73 542.41 174.45 460.68 212.62 498.85 247.18 533.42 293.21 579.44 308.83 595.06 336.2 622.43 379.19 579.44 351.83 552.07 389.71 514.29 416.98 541.56 455.62 580.2"/>
    <polygon class="cls-1" points="579.49 456.33 537.34 498.57 498.14 537.77 335.92 375.55 293.4 417.98 328.06 452.64 290.18 490.42 255.61 455.86 217.45 417.69 255.33 379.91 297.75 337.39 336.96 298.18 375.12 336.34 455.71 416.93 471.34 432.56 498.71 459.93 540.85 417.69 579.49 456.33"/>
    <polygon class="cls-2" points="373.99 498.57 336.2 536.45 304.85 505.1 342.64 467.22 373.99 498.57"/>
  </g>
</svg>