<?xml version="1.0" encoding="UTF-8"?>
<svg id="Capa_1" xmlns="http://www.w3.org/2000/svg" viewBox="0 0 1920 900">
  <defs>
    <style>
      .cls-1 {
        fill: #e45c2b;
      }

      .cls-2 {
        fill: #5e5e5e;
      }
    </style>
  </defs>
  <polygon class="cls-1" points="1200.75 613.3 1124.63 689.6 959.43 854.81 881.6 776.97 826.46 721.84 794.99 690.37 632.64 528.02 546.61 613.87 469.73 537.18 634.36 372.55 711.24 449.43 780.87 519.06 873.58 611.77 905.06 643.25 960.19 698.38 1046.8 611.77 991.67 556.64 1067.97 480.52 1122.91 535.46 1200.75 613.3"/>
  <polygon class="cls-1" points="1450.27 363.77 1365.38 448.85 1286.4 527.83 959.62 201.05 873.96 286.51 943.79 356.33 867.48 432.45 797.85 362.82 720.97 285.94 797.28 209.83 882.74 124.17 961.72 45.19 1038.6 122.07 1200.94 284.41 1232.41 315.89 1287.55 371.02 1372.44 285.94 1450.27 363.77"/>
  <polygon class="cls-2" points="1036.31 448.85 960.19 525.16 897.05 462.02 973.16 385.71 1036.31 448.85"/>
</svg>