<?xml version="1.0" encoding="UTF-8" standalone="no"?>
<!DOCTYPE svg PUBLIC "-//W3C//DTD SVG 1.1//EN" "http://www.w3.org/Graphics/SVG/1.1/DTD/svg11.dtd">
<svg width="100%" height="100%" viewBox="0 0 7050 1700" version="1.1" xmlns="http://www.w3.org/2000/svg" xmlns:xlink="http://www.w3.org/1999/xlink" xml:space="preserve" xmlns:serif="http://www.serif.com/" style="fill-rule:evenodd;clip-rule:evenodd;stroke-linejoin:round;stroke-miterlimit:2;">
    <g transform="matrix(4.16667,0,0,4.16667,0,0)">
        <g id="Artboard1" transform="matrix(1,0,0,1,1,3)">
            <rect x="-1" y="-3" width="1692" height="408" style="fill:none;"/>
            <g>
                <path d="M506.3,253.3L528.2,242.6C534.8,257.4 549.4,265.3 569.5,265.3C589.6,265.3 604.7,255.9 604.7,239.1C604.7,220.3 587.4,216.9 567.2,213.1C541.5,208 509.6,199.6 509.6,163.4C509.6,135.1 535.3,113.7 567.7,113.7C593.7,113.7 616.9,125.9 627.1,149.4L605.4,160.6C598.5,146.6 585.5,137.9 566.7,137.9C549.4,137.9 535.4,148.1 535.4,162.6C535.4,180.9 553.5,185 574.1,189.1C599.6,194.2 630.7,202.6 630.7,238.8C630.7,268.9 603.9,289.8 569.6,289.8C540.7,289.7 516.5,276.7 506.3,253.3Z" style="fill:rgb(238,238,238);fill-rule:nonzero;"/>
                <rect x="656.6" y="113.4" width="26" height="176.3" style="fill:rgb(238,238,238);fill-rule:nonzero;"/>
                <path d="M865.8,206.9L865.8,257.3C854.1,274.4 828.9,289.9 795.5,289.9C746.6,289.9 708.6,250.4 708.6,201.2C708.6,152 746.3,113.3 795.5,113.3C823.8,113.3 851.3,127.1 864.5,153L843.3,165.2C833.1,147.6 815.3,137.7 794.4,137.7C760.8,137.7 735.3,166 735.3,201.6C735.3,237.2 760.8,265.8 795.4,265.8C815.8,265.8 832.3,257.9 840.5,248.2L840.5,232.7L794.5,232.7L794.5,206.7L865.8,206.9Z" style="fill:rgb(238,238,238);fill-rule:nonzero;"/>
                <path d="M891.8,289.6L891.8,137.6C891.8,122.1 902,113.1 915,113.1C925.5,113.1 932.6,117.2 937.4,126.1L1009.2,260.4C1010,262.7 1010.5,263.7 1012,263.7C1013,263.7 1013.3,263.2 1013.3,261.7L1013.3,113.1L1038,113.1L1038,265.7C1038,281.2 1027,289.9 1015.3,289.9C1005.6,289.9 997.2,285.8 992.4,276.7L920.8,142.2C920.3,140.2 919.8,139.1 918.5,139.1C917,139.1 916.5,140.1 916.5,142.2L916.5,289.6L891.8,289.6Z" style="fill:rgb(238,238,238);fill-rule:nonzero;"/>
                <rect x="1064" y="113.1" width="26" height="176.5" style="fill:rgb(238,238,238);fill-rule:nonzero;"/>
                <path d="M1282.1,253.3L1304,242.6C1310.6,257.4 1325.2,265.3 1345.3,265.3C1365.4,265.3 1380.5,255.9 1380.5,239.1C1380.5,220.3 1363.2,216.9 1343.1,213.1C1317.4,208 1285.5,199.6 1285.5,163.4C1285.5,135.1 1311.2,113.7 1343.6,113.7C1369.6,113.7 1392.8,125.9 1403,149.4L1381.3,160.6C1374.4,146.6 1361.4,137.9 1342.6,137.9C1325.3,137.9 1311.3,148.1 1311.3,162.6C1311.3,180.9 1329.4,185 1350,189.1C1375.5,194.2 1406.6,202.6 1406.6,238.8C1406.6,268.9 1379.8,289.8 1345.5,289.8C1316.5,289.7 1292.3,276.7 1282.1,253.3Z" style="fill:rgb(238,238,238);fill-rule:nonzero;"/>
                <rect x="1484.2" y="113.1" width="26" height="176.5" style="fill:rgb(238,238,238);fill-rule:nonzero;"/>
                <path d="M1594.1,289.6L1536.3,289.6L1536.3,113.1L1595.4,113.1C1650.2,113.1 1686.9,147 1686.9,197.7C1686.8,251.2 1646.8,289.6 1594.1,289.6ZM1595.3,137.1L1562.2,137.1L1562.2,265.9L1594,265.9C1631.2,265.9 1660,239.4 1660,200.4C1660,164.2 1633.5,137.1 1595.3,137.1Z" style="fill:rgb(238,238,238);fill-rule:nonzero;"/>
                <path d="M1116,211.5L1116,113.1L1141.8,113.1L1141.8,210.7C1141.8,245 1156,264 1185.9,264C1215.8,264 1230,244.9 1230,210.7L1230,113.1L1255.8,113.1L1255.8,211.5C1255.8,259.4 1233.5,288.8 1185.9,288.8C1138.3,288.8 1116,259.5 1116,211.5Z" style="fill:rgb(238,238,238);fill-rule:nonzero;"/>
            </g>
            <g>
                <path d="M362.9,282L325.1,319.9L243.1,401.9L204.4,363.3L177.1,335.9L80.9,239.7L38.2,282.3L0,244.2L81.7,162.5L216.1,296.9L243.5,324.2L286.5,281.3L259.1,253.9L297,216.1L324.2,243.4L362.9,282Z" style="fill:rgb(228,92,43);fill-rule:nonzero;"/>
                <path d="M486.8,158.1L444.6,200.4L405.4,239.6L243.2,77.4L200.7,119.8L235.3,154.5L197.4,192.2L124.7,119.5L162.6,81.7L205,39.2L244.2,0L406,161.8L448.1,119.5L486.8,158.1Z" style="fill:rgb(228,92,43);fill-rule:nonzero;"/>
                <path d="M281.3,200.4L243.5,238.3L212.1,206.9L249.9,169L281.3,200.4Z" style="fill:rgb(238,238,238);fill-rule:nonzero;"/>
            </g>
        </g>
    </g>
</svg>
